<svg width="24" height="24" viewBox="0 0 24 24" fill="none" xmlns="http://www.w3.org/2000/svg">
<path d="M15.7201 2.22C15.8615 2.08331 16.0509 2.00763 16.2475 2.00924C16.4442 2.01086 16.6323 2.08965 16.7715 2.22864C16.9106 2.36763 16.9896 2.5557 16.9914 2.75235C16.9932 2.949 16.9176 3.13848 16.7811 3.28L15.5601 4.5H17.7501C18.0681 4.5 18.3501 4.7 18.4571 4.998L19.7071 8.498C19.7475 8.61123 19.7601 8.7325 19.7438 8.85161C19.7275 8.97072 19.6828 9.08417 19.6135 9.18239C19.5442 9.28062 19.4523 9.36074 19.3455 9.41602C19.2388 9.47129 19.1203 9.5001 19.0001 9.5H17.9551L16.3681 19.55C16.1581 21.015 14.9081 22 13.3981 22H10.6021C9.09109 22 7.84109 21.015 7.63309 19.56L6.04509 9.5H5.00109C4.88088 9.5001 4.7624 9.47129 4.65564 9.41602C4.54889 9.36074 4.45699 9.28062 4.38768 9.18239C4.31837 9.08417 4.27369 8.97072 4.2574 8.85161C4.24112 8.7325 4.2537 8.61123 4.29409 8.498L5.54409 4.998C5.59612 4.85216 5.692 4.72601 5.81859 4.63684C5.94518 4.54768 6.09626 4.49987 6.25109 4.5H13.4391L15.7201 2.22ZM17.2221 6H6.78009L6.06609 8H17.9371L17.2221 6Z" fill="black"/>
</svg>
