<svg width="24" height="24" viewBox="0 0 24 24" fill="none" xmlns="http://www.w3.org/2000/svg">
<path d="M2.44434 2.12157C2.83486 1.73104 3.46787 1.73104 3.8584 2.12157L21.8574 20.1206C22.2479 20.5111 22.2479 21.1442 21.8574 21.5347C21.4669 21.925 20.8338 21.9251 20.4434 21.5347L18.7793 19.8706C18.1018 20.6109 17.0492 21.0005 16.0723 21.0005H7.92773C6.31837 21.0005 4.5003 19.9472 4.5 18.0005C4.5 16.0115 5.28992 14.1033 6.69629 12.6968C7.55888 11.8342 8.61006 11.203 9.75293 10.8442L2.44434 3.53563C2.05386 3.14515 2.05395 2.5121 2.44434 2.12157ZM10.9951 12.0864C9.77691 12.2936 8.64324 12.8729 7.75781 13.7583C6.63275 14.8835 6 16.4093 6 18.0005C6.00032 18.8013 6.78796 19.5005 7.92773 19.5005H16.0723C16.7994 19.5005 17.3815 19.2142 17.709 18.8003L10.9951 12.0864ZM14.2969 10.8628C15.42 11.2243 16.4539 11.8469 17.3037 12.6968C18.1531 13.5463 18.7752 14.58 19.1367 15.7026L14.2969 10.8628ZM3.5625 6.37547C5.043 6.37547 6 7.78247 6 9.18797C5.99978 10.5933 5.04283 12.0005 3.5625 12.0005C2.08217 12.0005 1.12522 10.5933 1.125 9.18797C1.125 7.78247 2.082 6.37547 3.5625 6.37547ZM20.4375 6.37547C21.918 6.37547 22.875 7.78247 22.875 9.18797C22.8748 10.5933 21.9178 12.0005 20.4375 12.0005C18.9572 12.0005 18.0002 10.5933 18 9.18797C18 7.78247 18.957 6.37547 20.4375 6.37547ZM3.5625 7.87547C3.1785 7.87547 2.625 8.31497 2.625 9.18797C2.6252 10.0607 3.17857 10.5005 3.5625 10.5005C3.94643 10.5005 4.4998 10.0607 4.5 9.18797C4.5 8.31497 3.9465 7.87547 3.5625 7.87547ZM20.4375 7.87547C20.0535 7.87547 19.5 8.31497 19.5 9.18797C19.5002 10.0607 20.0536 10.5005 20.4375 10.5005C20.8214 10.5005 21.3748 10.0607 21.375 9.18797C21.375 8.31497 20.8215 7.87547 20.4375 7.87547ZM15.1875 3.00047C16.668 3.00047 17.625 4.40747 17.625 5.81297C17.6248 7.21831 16.6678 8.62547 15.1875 8.62547C13.7072 8.62547 12.7502 7.21831 12.75 5.81297C12.75 4.40747 13.707 3.00047 15.1875 3.00047ZM8.8125 3.00047C10.293 3.00047 11.25 4.40747 11.25 5.81297C11.2499 6.36822 11.0972 6.92228 10.8252 7.3911L9.69531 6.26122C9.72991 6.12741 9.74996 5.97771 9.75 5.81297C9.75 4.93997 9.1965 4.50047 8.8125 4.50047C8.63063 4.50047 8.41157 4.59983 8.23047 4.79637L7.16699 3.7329C7.58219 3.28834 8.14357 3.00047 8.8125 3.00047ZM15.1875 4.50047C14.8035 4.50047 14.25 4.93997 14.25 5.81297C14.2502 6.68565 14.8036 7.12547 15.1875 7.12547C15.5714 7.12547 16.1248 6.68565 16.125 5.81297C16.125 4.93997 15.5715 4.50047 15.1875 4.50047Z" fill="black"/>
</svg>
