<svg width="24" height="24" viewBox="0 0 24 24" fill="none" xmlns="http://www.w3.org/2000/svg">
<path d="M3.49995 16C3.08328 16 2.72928 15.8543 2.43795 15.563C2.14662 15.2716 2.00062 14.9173 1.99995 14.5C1.99928 14.0826 2.14528 13.7286 2.43795 13.438C2.73062 13.1473 3.08462 13.0013 3.49995 13H10.2L2.09995 4.89998C1.91662 4.71665 1.82495 4.48331 1.82495 4.19998C1.82495 3.91665 1.91662 3.68331 2.09995 3.49998C2.28328 3.31665 2.51662 3.22498 2.79995 3.22498C3.08328 3.22498 3.31662 3.31665 3.49995 3.49998L20.5 20.5C20.6833 20.6833 20.775 20.9166 20.775 21.2C20.775 21.4833 20.6833 21.7166 20.5 21.9C20.3166 22.0833 20.0833 22.175 19.7999 22.175C19.5166 22.175 19.2833 22.0833 19.1 21.9L13.2 16H3.49995ZM18.75 13C18.9666 13 19.146 13.071 19.288 13.213C19.43 13.355 19.5006 13.534 19.5 13.75V15.25C19.5 15.4833 19.4376 15.6666 19.313 15.8C19.1883 15.9333 19.034 16 18.85 16L18 15.15V13.75C18 13.5333 18.0709 13.3543 18.2129 13.213C18.3549 13.0716 18.534 13.0006 18.75 13ZM21.25 13C21.4666 13 21.646 13.071 21.788 13.213C21.93 13.355 22.0006 13.534 22 13.75V15.25C22 15.4666 21.929 15.646 21.787 15.788C21.645 15.93 21.466 16.0006 21.25 16C21.034 15.9993 20.8549 15.9283 20.7129 15.787C20.5709 15.6456 20.5 15.4666 20.5 15.25V13.75C20.5 13.5333 20.5709 13.3543 20.7129 13.213C20.8549 13.0716 21.034 13.0006 21.25 13ZM15.85 13H16.25C16.4666 13 16.646 13.071 16.788 13.213C16.93 13.355 17.0006 13.534 17 13.75V14.15L15.85 13ZM18.75 12C18.5333 12 18.3543 11.929 18.2129 11.787C18.0716 11.645 18.0006 11.466 18 11.25V10.7C18 10.05 17.8083 9.55431 17.425 9.21298C17.0416 8.87165 16.5833 8.70065 16.05 8.69998H14.5C13.5666 8.69998 12.775 8.37498 12.125 7.72498C11.475 7.07498 11.15 6.28331 11.15 5.34998C11.15 4.41665 11.475 3.62498 12.125 2.97498C12.775 2.32498 13.5666 1.99998 14.5 1.99998C14.7166 1.99998 14.896 2.07098 15.038 2.21298C15.18 2.35498 15.2506 2.53398 15.25 2.74998C15.2493 2.96598 15.1783 3.14531 15.037 3.28798C14.8956 3.43065 14.7166 3.50131 14.5 3.49998C14 3.49998 13.5666 3.67498 13.2 4.02498C12.8333 4.37498 12.65 4.81665 12.65 5.34998C12.65 5.88331 12.8333 6.32498 13.2 6.67498C13.5666 7.02498 14 7.19998 14.5 7.19998H16.05C16.9833 7.19998 17.7916 7.49998 18.475 8.09998C19.1583 8.69998 19.5 9.44998 19.5 10.35V11.25C19.5 11.4666 19.429 11.646 19.287 11.788C19.145 11.93 18.966 12.0006 18.75 12ZM21.25 12C21.0333 12 20.8543 11.929 20.7129 11.787C20.5716 11.645 20.5006 11.466 20.5 11.25V9.74998C20.5 8.64998 20.1166 7.69998 19.35 6.89998C18.5833 6.09998 17.6333 5.69998 16.5 5.69998C16.2833 5.69998 16.1043 5.62898 15.963 5.48698C15.8216 5.34498 15.7506 5.16598 15.75 4.94998C15.7493 4.73398 15.8203 4.55498 15.963 4.41298C16.1056 4.27098 16.2846 4.19998 16.5 4.19998C17 4.19998 17.4333 4.01665 17.8 3.64998C18.1666 3.28331 18.35 2.84998 18.35 2.34998C18.35 2.13331 18.421 1.95431 18.563 1.81298C18.705 1.67165 18.884 1.60065 19.1 1.59998C19.316 1.59931 19.4953 1.67031 19.638 1.81298C19.7806 1.95565 19.8513 2.13465 19.85 2.34998C19.85 2.83331 19.7583 3.27098 19.575 3.66298C19.3916 4.05498 19.15 4.41731 18.85 4.74998C19.7833 5.18331 20.5416 5.84998 21.125 6.74998C21.7083 7.64998 22 8.64998 22 9.74998V11.25C22 11.4666 21.929 11.646 21.787 11.788C21.645 11.93 21.466 12.0006 21.25 12Z" fill="black"/>
</svg>
