<svg width="24" height="24" viewBox="0 0 24 24" fill="none" xmlns="http://www.w3.org/2000/svg">
<path d="M5.47096 3.42C5.4285 4.12965 5.53258 4.84044 5.7767 5.50813C6.02083 6.17581 6.39977 6.7861 6.88996 7.301C5.93732 7.57414 5.08442 8.11788 4.43475 8.86624C3.78508 9.61461 3.36655 10.5354 3.22996 11.517C2.90057 13.8725 3.3838 16.27 4.59996 18.314L4.94996 18.904L4.99296 18.967L6.40896 20.873C6.70888 21.277 7.09324 21.6107 7.53528 21.851C7.97733 22.0913 8.46643 22.2323 8.96854 22.2643C9.47065 22.2963 9.97369 22.2184 10.4427 22.0362C10.9116 21.8539 11.3352 21.5716 11.684 21.209C11.7247 21.1666 11.7737 21.1329 11.8278 21.1098C11.8819 21.0868 11.9401 21.0749 11.999 21.0749C12.0578 21.0749 12.116 21.0868 12.1701 21.1098C12.2243 21.1329 12.2732 21.1666 12.314 21.209C12.6627 21.5716 13.0863 21.8539 13.5553 22.0362C14.0242 22.2184 14.5273 22.2963 15.0294 22.2643C15.5315 22.2323 16.0206 22.0913 16.4626 21.851C16.9047 21.6107 17.289 21.277 17.589 20.873L19.005 18.966L19.047 18.903L19.398 18.313C20.6147 16.2699 21.099 13.8732 20.771 11.518C20.6741 10.824 20.4359 10.1573 20.071 9.5591C19.7061 8.96091 19.2223 8.44399 18.6495 8.04034C18.0768 7.63668 17.4272 7.35489 16.7412 7.21241C16.0551 7.06993 15.3471 7.06979 14.661 7.212L12.76 7.606H12.757C12.787 6.826 12.909 5.986 13.148 5.268C13.438 4.4 13.84 3.878 14.288 3.692C14.4716 3.61535 14.6173 3.46889 14.693 3.28482C14.7687 3.10075 14.7681 2.89416 14.6915 2.7105C14.6148 2.52684 14.4683 2.38115 14.2843 2.30548C14.1002 2.22981 13.8936 2.23035 13.71 2.307C12.658 2.746 12.06 3.787 11.725 4.793L11.679 4.935C11.433 4.45899 11.1149 4.02385 10.736 3.645C10.2174 3.12574 9.59438 2.7226 8.90823 2.46228C8.22209 2.20196 7.48847 2.0904 6.75596 2.135C6.42167 2.15424 6.10607 2.29551 5.86903 2.532C5.63198 2.76849 5.48998 3.08376 5.46996 3.418M8.39596 11.233C8.04896 11.302 7.73096 11.546 7.53196 12.011C7.32896 12.485 7.25696 13.188 7.47596 14.065C7.52098 14.2568 7.48872 14.4586 7.38615 14.6268C7.28359 14.795 7.11895 14.9161 6.92782 14.964C6.73669 15.0118 6.53443 14.9825 6.36474 14.8824C6.19504 14.7823 6.07156 14.6194 6.02096 14.429C5.74096 13.307 5.79396 12.259 6.15296 11.42C6.51596 10.573 7.19796 9.942 8.10196 9.762C8.19993 9.73888 8.30155 9.73571 8.40077 9.75269C8.5 9.76967 8.59478 9.80645 8.67949 9.86084C8.76419 9.91523 8.83709 9.98611 8.89382 10.0693C8.95055 10.1524 8.98996 10.2461 9.0097 10.3449C9.02944 10.4436 9.02911 10.5452 9.00873 10.6438C8.98834 10.7424 8.94832 10.8359 8.89105 10.9186C8.83378 11.0014 8.76043 11.0718 8.67537 11.1257C8.59031 11.1795 8.49529 11.2167 8.39596 11.233Z" fill="black"/>
</svg>
