<svg width="24" height="24" viewBox="0 0 24 24" fill="none" xmlns="http://www.w3.org/2000/svg">
<path d="M4.80005 19.2V4.80002C4.80005 4.1635 5.05291 3.55306 5.50299 3.10297C5.95308 2.65288 6.56353 2.40002 7.20005 2.40002H16.8C17.4366 2.40002 18.047 2.65288 18.4971 3.10297C18.9472 3.55306 19.2 4.1635 19.2 4.80002V18C19.2 18.3183 19.0736 18.6235 18.8486 18.8486C18.6235 19.0736 18.3183 19.2 18 19.2H6.00005C6.00005 19.5183 6.12648 19.8235 6.35152 20.0486C6.57656 20.2736 6.88179 20.4 7.20005 20.4H18.6C18.7592 20.4 18.9118 20.4632 19.0243 20.5758C19.1368 20.6883 19.2 20.8409 19.2 21C19.2 21.1592 19.1368 21.3118 19.0243 21.4243C18.9118 21.5368 18.7592 21.6 18.6 21.6H7.20005C6.56353 21.6 5.95308 21.3472 5.50299 20.8971C5.05291 20.447 4.80005 19.8365 4.80005 19.2ZM18 4.80002C18 4.48176 17.8736 4.17654 17.6486 3.9515C17.4235 3.72645 17.1183 3.60002 16.8 3.60002H7.20005C6.88179 3.60002 6.57656 3.72645 6.35152 3.9515C6.12648 4.17654 6.00005 4.48176 6.00005 4.80002V18H18V4.80002ZM8.40005 13.5C8.40085 13.4088 8.41325 13.3216 8.43725 13.2384C8.61165 13.3704 8.79285 13.4904 8.98085 13.5984C9.90096 14.1223 10.9413 14.3985 12 14.4C13.1784 14.4 14.2356 14.0484 15.0192 13.5972C15.2072 13.4892 15.3884 13.3696 15.5628 13.2384C15.5868 13.3224 15.5992 13.4096 15.6 13.5C15.6 13.86 15.3816 14.16 15.204 14.352C14.9742 14.5916 14.7102 14.7958 14.4204 14.958C13.6825 15.3772 12.8487 15.5984 12 15.6C11.1514 15.5984 10.3176 15.3772 9.57965 14.958C9.2896 14.7963 9.02512 14.5925 8.79485 14.3532C8.61845 14.16 8.40005 13.86 8.40005 13.5ZM8.43725 10.8384C8.41285 10.9235 8.40033 11.0115 8.40005 11.1C8.40005 11.46 8.61845 11.7612 8.79605 11.952C9.02587 12.1916 9.28994 12.3958 9.57965 12.558C10.3176 12.9772 11.1514 13.1984 12 13.2C12.9456 13.2 13.7976 12.9168 14.4204 12.558C14.7324 12.378 15.0024 12.1716 15.2052 11.9532C15.3816 11.7612 15.6 11.4612 15.6 11.1012C15.5999 11.0123 15.5874 10.9239 15.5628 10.8384C15.3884 10.9704 15.2072 11.0904 15.0192 11.1984C14.0991 11.7223 13.0588 11.9985 12 12C10.9411 11.9981 9.90085 11.7215 8.98085 11.1972C8.79173 11.0901 8.61012 10.9702 8.43725 10.8384ZM9.60005 8.40002C9.60005 8.14442 9.75125 7.86242 10.1796 7.61402C10.6092 7.36442 11.2488 7.20002 12 7.20002C12.7512 7.20002 13.3908 7.36442 13.8204 7.61402C14.25 7.86362 14.4 8.14442 14.4 8.40002C14.4 8.65562 14.2488 8.93762 13.8204 9.18603C13.3908 9.43563 12.7512 9.60002 12 9.60002C11.2488 9.60002 10.6092 9.43563 10.1796 9.18603C9.75005 8.93642 9.60005 8.65562 9.60005 8.40002ZM12 6.00002C11.094 6.00002 10.2336 6.19562 9.57725 6.57602C8.92085 6.95762 8.40005 7.57562 8.40005 8.40002C8.40005 9.22442 8.92085 9.84243 9.57725 10.224C10.2336 10.6044 11.094 10.8 12 10.8C12.906 10.8 13.7664 10.6044 14.4228 10.224C15.0792 9.84243 15.6 9.22442 15.6 8.40002C15.6 7.57562 15.0792 6.95762 14.4228 6.57602C13.7664 6.19562 12.906 6.00002 12 6.00002Z" fill="black"/>
</svg>
