<svg width="24" height="24" viewBox="0 0 24 24" fill="none" xmlns="http://www.w3.org/2000/svg">
<path d="M12 22.5C14.7848 22.5 17.4555 21.3938 19.4246 19.4246C21.3938 17.4555 22.5 14.7848 22.5 12C22.5 9.21523 21.3938 6.54451 19.4246 4.57538C17.4555 2.60625 14.7848 1.5 12 1.5C9.21523 1.5 6.54451 2.60625 4.57538 4.57538C2.60625 6.54451 1.5 9.21523 1.5 12C1.5 14.7848 2.60625 17.4555 4.57538 19.4246C6.54451 21.3938 9.21523 22.5 12 22.5ZM12 6.75V12H15.75C15.9489 12 16.1397 12.079 16.2803 12.2197C16.421 12.3603 16.5 12.5511 16.5 12.75C16.5 12.9489 16.421 13.1397 16.2803 13.2803C16.1397 13.421 15.9489 13.5 15.75 13.5H11.25C11.0511 13.5 10.8603 13.421 10.7197 13.2803C10.579 13.1397 10.5 12.9489 10.5 12.75V6.75C10.5 6.55109 10.579 6.36032 10.7197 6.21967C10.8603 6.07902 11.0511 6 11.25 6C11.4489 6 11.6397 6.07902 11.7803 6.21967C11.921 6.36032 12 6.55109 12 6.75Z" fill="black"/>
</svg>
