<svg width="24" height="24" viewBox="0 0 24 24" fill="none" xmlns="http://www.w3.org/2000/svg">
<path d="M9.51489 11.724C9.51489 10.594 9.60689 9.32197 9.90089 8.13697C10.1959 6.94797 10.6789 5.90197 11.4179 5.16397C12.2379 4.34397 13.3919 3.88397 14.6679 3.66397C15.9379 3.44597 17.2679 3.47797 18.3599 3.58397C18.8912 3.6308 19.389 3.86322 19.7661 4.24046C20.1431 4.61769 20.3753 5.11565 20.4219 5.64697C20.5279 6.73897 20.5599 8.06697 20.3419 9.33897C20.1219 10.615 19.6619 11.768 18.8419 12.589C18.1029 13.328 17.0559 13.812 15.8659 14.107C14.6809 14.401 13.4079 14.494 12.2779 14.494C11.2779 14.494 10.4579 15.306 10.4529 16.308C10.4449 18.003 10.2329 19.968 9.51689 21.478C9.47753 21.4416 9.45089 21.3936 9.44089 21.341C9.22802 20.4411 8.97071 19.5524 8.66989 18.678C8.52552 18.2612 8.35622 17.8534 8.16289 17.457C7.98489 17.102 7.77089 16.75 7.51189 16.49C7.25189 16.23 6.89989 16.016 6.54389 15.838C6.1471 15.6446 5.73903 15.4753 5.32189 15.331C4.4464 15.0309 3.55705 14.773 2.65689 14.558C2.6051 14.5478 2.55785 14.5216 2.52189 14.483C4.03189 13.766 6.00189 13.556 7.69889 13.549C8.18119 13.5461 8.64277 13.3526 8.98296 13.0107C9.32316 12.6688 9.51437 12.2063 9.51489 11.724ZM10.3569 4.10297C9.35589 5.10397 8.77689 6.43797 8.44489 7.77597C8.11189 9.11997 8.01389 10.523 8.01489 11.726C8.01386 11.8111 7.97963 11.8925 7.9195 11.9529C7.85936 12.0132 7.77806 12.0477 7.69289 12.049C5.92189 12.056 3.67689 12.269 1.86089 13.136C1.17889 13.462 0.89389 14.134 1.03489 14.771C1.16789 15.367 1.64989 15.856 2.30189 16.015C3.09689 16.209 4.01889 16.46 4.82089 16.745C5.22189 16.887 5.58089 17.033 5.87289 17.179C6.17489 17.331 6.35989 17.459 6.45089 17.551C6.54189 17.641 6.67089 17.826 6.82189 18.128C6.96789 18.42 7.11389 18.778 7.25589 19.179C7.53989 19.98 7.78989 20.902 7.98389 21.696C8.14289 22.348 8.63189 22.831 9.22889 22.963C9.86589 23.105 10.5379 22.82 10.8639 22.138C11.7309 20.325 11.9439 18.084 11.9539 16.315C11.9539 16.141 12.1009 15.994 12.2769 15.994C13.4789 15.994 14.8829 15.896 16.2269 15.563C17.5669 15.23 18.9009 14.651 19.9029 13.649C21.0229 12.529 21.5709 11.04 21.8199 9.59297C22.0699 8.14197 22.0289 6.66697 21.9149 5.50097C21.8344 4.62372 21.4493 3.80234 20.8264 3.17943C20.2035 2.55652 19.3821 2.17141 18.5049 2.09097C17.3389 1.97797 15.8649 1.93697 14.4129 2.18597C12.9659 2.43497 11.4769 2.98397 10.3569 4.10297ZM16.0019 4.99997C16.2671 4.99997 16.5215 5.10533 16.709 5.29286C16.8965 5.4804 17.0019 5.73475 17.0019 5.99997C17.0019 6.26519 16.8965 6.51954 16.709 6.70708C16.5215 6.89461 16.2671 6.99997 16.0019 6.99997C15.7367 6.99997 15.4823 6.89461 15.2948 6.70708C15.1072 6.51954 15.0019 6.26519 15.0019 5.99997C15.0019 5.73475 15.1072 5.4804 15.2948 5.29286C15.4823 5.10533 15.7367 4.99997 16.0019 4.99997Z" fill="black"/>
</svg>
