<svg width="24" height="24" viewBox="0 0 24 24" fill="none" xmlns="http://www.w3.org/2000/svg">
<path d="M14.25 5.8125C14.25 4.9395 14.8035 4.5 15.1875 4.5C15.5715 4.5 16.125 4.9395 16.125 5.8125C16.125 6.6855 15.5715 7.125 15.1875 7.125C14.8035 7.125 14.25 6.6855 14.25 5.8125ZM15.1875 3C13.707 3 12.75 4.407 12.75 5.8125C12.75 7.218 13.707 8.625 15.1875 8.625C16.668 8.625 17.625 7.218 17.625 5.8125C17.625 4.407 16.668 3 15.1875 3ZM3.5625 7.875C3.1785 7.875 2.625 8.3145 2.625 9.1875C2.625 10.0605 3.1785 10.5 3.5625 10.5C3.9465 10.5 4.5 10.0605 4.5 9.1875C4.5 8.3145 3.9465 7.875 3.5625 7.875ZM1.125 9.1875C1.125 7.782 2.082 6.375 3.5625 6.375C5.043 6.375 6 7.782 6 9.1875C6 10.593 5.043 12 3.5625 12C2.082 12 1.125 10.593 1.125 9.1875ZM20.4375 7.875C20.0535 7.875 19.5 8.3145 19.5 9.1875C19.5 10.0605 20.0535 10.5 20.4375 10.5C20.8215 10.5 21.375 10.0605 21.375 9.1875C21.375 8.3145 20.8215 7.875 20.4375 7.875ZM18 9.1875C18 7.782 18.957 6.375 20.4375 6.375C21.918 6.375 22.875 7.782 22.875 9.1875C22.875 10.593 21.918 12 20.4375 12C18.957 12 18 10.593 18 9.1875ZM8.8125 4.5C8.4285 4.5 7.875 4.9395 7.875 5.8125C7.875 6.6855 8.4285 7.125 8.8125 7.125C9.1965 7.125 9.75 6.6855 9.75 5.8125C9.75 4.9395 9.1965 4.5 8.8125 4.5ZM6.375 5.8125C6.375 4.407 7.332 3 8.8125 3C10.293 3 11.25 4.407 11.25 5.8125C11.25 7.218 10.293 8.625 8.8125 8.625C7.332 8.625 6.375 7.218 6.375 5.8125ZM6 18C6 16.4087 6.63214 14.8826 7.75736 13.7574C8.88258 12.6321 10.4087 12 12 12C13.5913 12 15.1174 12.6321 16.2426 13.7574C17.3679 14.8826 18 16.4087 18 18C18 18.801 17.2125 19.5 16.0725 19.5H7.9275C6.7875 19.5 6 18.801 6 18ZM12 10.5C10.0109 10.5 8.10322 11.2902 6.6967 12.6967C5.29018 14.1032 4.5 16.0109 4.5 18C4.5 19.947 6.318 21 7.9275 21H16.0725C17.682 21 19.5 19.947 19.5 18C19.5 16.0109 18.7098 14.1032 17.3033 12.6967C15.8968 11.2902 13.9891 10.5 12 10.5Z" fill="black"/>
</svg>
