<svg width="24" height="24" viewBox="0 0 24 24" fill="none" xmlns="http://www.w3.org/2000/svg">
<path d="M13.0716 5.20042C17.0672 5.20064 20.3002 8.45401 20.3002 12.4592V14.5413C20.3001 16.167 19.7666 17.6685 18.8666 18.8792L21.1371 21.1487L21.1918 21.2102C21.4477 21.5245 21.4299 21.9878 21.1371 22.2806C20.8443 22.5731 20.3809 22.5911 20.0668 22.3352L20.0053 22.2806L17.7748 20.0491C16.5109 21.1386 14.8695 21.8 13.0716 21.8001H10.9291C9.13072 21.8001 7.48805 21.1391 6.22396 20.0491L3.99446 22.2806L3.93294 22.3352C3.61877 22.5911 3.15538 22.5732 2.86262 22.2806C2.56988 21.9878 2.55206 21.5244 2.80793 21.2102L2.86262 21.1487L5.13216 18.8792C4.23235 17.6686 3.70056 16.1667 3.70051 14.5413V12.4592C3.70051 8.57891 6.73444 5.40363 10.557 5.20921L10.9291 5.20042H13.0716ZM10.64 6.80784C7.66883 6.959 5.30013 9.4281 5.30013 12.4592V14.5413C5.30025 17.6699 7.82407 20.2005 10.9291 20.2005H13.0716C16.1764 20.2002 18.7005 17.6698 18.7006 14.5413V12.4592C18.7006 9.3306 16.1765 6.80026 13.0716 6.80003H10.9291L10.64 6.80784ZM12.0004 8.77172C12.442 8.77194 12.8002 9.12984 12.8002 9.57152V13.343H16.0004C16.442 13.3432 16.8001 13.7012 16.8002 14.1428C16.8001 14.5845 16.442 14.9424 16.0004 14.9426H12.0004C11.5586 14.9426 11.2006 14.5846 11.2005 14.1428V9.57152C11.2005 9.1297 11.5585 8.77172 12.0004 8.77172ZM3.49641 3.37814C4.77355 2.34405 6.46446 2.43215 7.70932 3.24338L7.95151 3.41525C8.30183 3.68409 8.36858 4.18679 8.09995 4.53733C7.8481 4.86565 7.39116 4.94396 7.04623 4.73166L6.97787 4.68479C6.20494 4.09266 5.19866 4.05928 4.50325 4.62229L4.36165 4.74631C3.68309 5.38969 3.47671 6.33911 3.79524 7.0764C3.97027 7.48179 3.7835 7.95279 3.37825 8.12816C2.97291 8.30338 2.50203 8.11724 2.32649 7.71214C1.70983 6.28566 2.15171 4.63662 3.26497 3.58127L3.49641 3.37814ZM16.3802 3.18771C17.5322 2.47956 19.0398 2.37982 20.2494 3.19064L20.5033 3.37814C21.7838 4.41535 22.3309 6.18903 21.6742 7.71019C21.4991 8.11561 21.028 8.30198 20.6225 8.12718C20.2173 7.95193 20.0307 7.48178 20.2055 7.0764C20.5449 6.29014 20.2867 5.26247 19.4965 4.62229L19.3656 4.52561C18.7404 4.10627 17.9146 4.12201 17.223 4.54807L17.0765 4.64573L17.0082 4.68967C16.6573 4.89288 16.2021 4.80149 15.9593 4.46604C15.7167 4.13029 15.7725 3.66912 16.0756 3.39963L16.139 3.34885L16.3802 3.18771Z" fill="black"/>
</svg>
