<svg width="24" height="24" viewBox="0 0 24 24" fill="none" xmlns="http://www.w3.org/2000/svg">
<path d="M15.582 2.2041C15.9853 2.24518 16.2998 2.58587 16.2998 3C16.2998 3.41413 15.9853 3.75482 15.582 3.7959L15.5 3.7998H14.2734C14.29 3.86387 14.2998 3.93077 14.2998 4V5.24121C15.0471 5.31837 15.7838 5.50336 16.4854 5.79395L16.75 5.90918C16.7766 5.92138 16.8026 5.93478 16.8291 5.94727L17.6074 4.60059L17.6514 4.53125C17.8885 4.2023 18.3414 4.09957 18.7002 4.30664C19.0589 4.51375 19.1965 4.9573 19.0303 5.32715L18.9922 5.40039L18.1982 6.77441C18.8922 7.2981 19.4983 7.93655 19.9863 8.66699L20.1416 8.90918C20.8982 10.1375 21.3008 11.5536 21.3008 13C21.3008 14.5424 20.8431 16.0505 19.9863 17.333C19.1293 18.6156 17.9104 19.6157 16.4854 20.2061C15.0602 20.7964 13.4914 20.9512 11.9785 20.6504C10.4658 20.3494 9.07607 19.6062 7.98535 18.5156C7.67293 18.2032 7.67293 17.6962 7.98535 17.3838C8.29772 17.072 8.80394 17.0718 9.11621 17.3838C9.98326 18.2507 11.0884 18.8418 12.291 19.0811C13.4934 19.3201 14.7404 19.1976 15.873 18.7285C17.0058 18.2592 17.9741 17.4638 18.6553 16.4443C19.3364 15.4248 19.7002 14.2262 19.7002 13C19.7002 11.8505 19.3805 10.7253 18.7793 9.74902L18.6553 9.55566C18.0167 8.59998 17.1261 7.84099 16.084 7.36328L15.873 7.27148C14.7404 6.80238 13.4934 6.67988 12.291 6.91895C11.0884 7.15815 9.98326 7.74926 9.11621 8.61621C8.80394 8.9282 8.29772 8.92804 7.98535 8.61621C7.67293 8.30379 7.67293 7.79679 7.98535 7.48438C9.07607 6.39384 10.4658 5.65056 11.9785 5.34961C12.2179 5.30201 12.4588 5.26705 12.7002 5.24219V4C12.7002 3.93077 12.71 3.86387 12.7266 3.7998H11.5C11.0582 3.7998 10.7002 3.44183 10.7002 3C10.7002 2.55817 11.0582 2.2002 11.5 2.2002H15.5L15.582 2.2041ZM8.58203 14.7041C8.98533 14.7452 9.2998 15.0859 9.2998 15.5C9.2998 15.9141 8.98533 16.2548 8.58203 16.2959L8.5 16.2998H5C4.55817 16.2998 4.2002 15.9418 4.2002 15.5C4.2002 15.0582 4.55817 14.7002 5 14.7002H8.5L8.58203 14.7041ZM15.5605 9.81348C15.8748 9.55717 16.3389 9.57526 16.6318 9.86816C16.9247 10.1611 16.9428 10.6252 16.6865 10.9395L16.6309 11L15.9629 11.667C16.1778 12.0633 16.2998 12.5174 16.2998 13C16.2998 14.5464 15.0464 15.7998 13.5 15.7998C11.9536 15.7998 10.7002 14.5464 10.7002 13C10.7002 11.4536 11.9536 10.2002 13.5 10.2002C13.9821 10.2002 14.436 10.3216 14.832 10.5361L15.5 9.86914L15.5605 9.81348ZM13.5 11.7998C12.8373 11.7998 12.2998 12.3373 12.2998 13C12.2998 13.6627 12.8373 14.2002 13.5 14.2002C14.1627 14.2002 14.7002 13.6627 14.7002 13C14.7002 12.3373 14.1627 11.7998 13.5 11.7998ZM8.58203 12.2041C8.98533 12.2452 9.2998 12.5859 9.2998 13C9.2998 13.4141 8.98533 13.7548 8.58203 13.7959L8.5 13.7998H6.5C6.05817 13.7998 5.7002 13.4418 5.7002 13C5.7002 12.5582 6.05817 12.2002 6.5 12.2002H8.5L8.58203 12.2041ZM8.58203 9.7041C8.98533 9.74518 9.2998 10.0859 9.2998 10.5C9.2998 10.9141 8.98533 11.2548 8.58203 11.2959L8.5 11.2998H3.5C3.05817 11.2998 2.7002 10.9418 2.7002 10.5C2.7002 10.0582 3.05817 9.7002 3.5 9.7002H8.5L8.58203 9.7041Z" fill="black"/>
</svg>
