<svg width="24" height="24" viewBox="0 0 24 24" fill="none" xmlns="http://www.w3.org/2000/svg">
<path d="M21.2759 3.66839C21.3734 3.71888 21.4551 3.79515 21.5122 3.88888C21.5694 3.98261 21.5997 4.09022 21.5999 4.19999V15.6C21.6 15.6965 21.5768 15.7916 21.5323 15.8773C21.4878 15.9629 21.4233 16.0366 21.3443 16.092L15.3443 20.292C15.2434 20.3627 15.1231 20.4007 14.9999 20.4007C14.8767 20.4007 14.7564 20.3627 14.6555 20.292L8.9999 16.332L3.3443 20.292C3.25435 20.355 3.14882 20.3922 3.03921 20.3994C2.92959 20.4066 2.82011 20.3836 2.72269 20.3328C2.62526 20.282 2.54365 20.2055 2.48673 20.1116C2.42981 20.0176 2.39978 19.9098 2.3999 19.8V8.39999C2.39979 8.30347 2.42297 8.20835 2.46747 8.1227C2.51196 8.03705 2.57647 7.96339 2.6555 7.90799L8.6555 3.70799C8.75642 3.63725 8.87667 3.5993 8.9999 3.5993C9.12314 3.5993 9.24339 3.63725 9.3443 3.70799L14.9999 7.66799L20.6555 3.70799C20.7456 3.64513 20.8512 3.6082 20.9608 3.60121C21.0704 3.59423 21.1798 3.61747 21.2771 3.66839M14.3999 8.71199L9.5999 5.35199V15.288L14.3999 18.648V8.71199ZM15.5999 18.648L20.3999 15.288V5.35199L15.5999 8.71199V18.648ZM8.3999 15.288V5.35199L3.5999 8.71199V18.648L8.3999 15.288Z" fill="black"/>
</svg>
