<svg width="24" height="24" viewBox="0 0 24 24" fill="none" xmlns="http://www.w3.org/2000/svg">
<path d="M12.3322 17.55L5.88222 20.3C5.66556 20.3833 5.46156 20.4043 5.27022 20.363C5.07889 20.3217 4.91622 20.234 4.78222 20.1C4.64822 19.966 4.56089 19.7993 4.52022 19.6C4.47956 19.4007 4.50022 19.1923 4.58222 18.975L11.4072 3.6C11.4906 3.4 11.6199 3.25 11.7952 3.15C11.9706 3.05 12.1496 3 12.3322 3C12.5149 3 12.6939 3.05 12.8692 3.15C13.0446 3.25 13.1739 3.4 13.2572 3.6L20.0822 18.975C20.1656 19.1917 20.1862 19.4 20.1442 19.6C20.1022 19.8 20.0149 19.9667 19.8822 20.1C19.7496 20.2333 19.5869 20.321 19.3942 20.363C19.2016 20.405 18.9976 20.384 18.7822 20.3L12.3322 17.55Z" fill="black"/>
</svg>
