<svg width="24" height="24" viewBox="0 0 24 24" fill="none" xmlns="http://www.w3.org/2000/svg">
<path d="M4.1999 4.79999C3.72251 4.79999 3.26468 4.98963 2.92711 5.3272C2.58954 5.66476 2.3999 6.1226 2.3999 6.59999V15C2.3999 15.4774 2.58954 15.9352 2.92711 16.2728C3.26468 16.6103 3.72251 16.8 4.1999 16.8H17.3999C17.8773 16.8 18.3351 16.6103 18.6727 16.2728C19.0103 15.9352 19.1999 15.4774 19.1999 15V6.59999C19.1999 6.1226 19.0103 5.66476 18.6727 5.3272C18.3351 4.98963 17.8773 4.79999 17.3999 4.79999H4.1999ZM7.1999 5.99999V7.19999C7.1999 7.83651 6.94705 8.44696 6.49696 8.89704C6.04687 9.34713 5.43642 9.59999 4.7999 9.59999H3.5999V8.39999H4.7999C5.11816 8.39999 5.42339 8.27356 5.64843 8.04852C5.87347 7.82347 5.9999 7.51825 5.9999 7.19999V5.99999H7.1999ZM10.7999 12.9C10.2429 12.9 9.7088 12.6787 9.31498 12.2849C8.92115 11.8911 8.6999 11.3569 8.6999 10.8C8.6999 10.243 8.92115 9.70889 9.31498 9.31506C9.7088 8.92124 10.2429 8.69999 10.7999 8.69999C11.3569 8.69999 11.891 8.92124 12.2848 9.31506C12.6787 9.70889 12.8999 10.243 12.8999 10.8C12.8999 11.3569 12.6787 11.8911 12.2848 12.2849C11.891 12.6787 11.3569 12.9 10.7999 12.9ZM3.5999 13.2V12H4.7999C5.43642 12 6.04687 12.2528 6.49696 12.7029C6.94705 13.153 7.1999 13.7635 7.1999 14.4V15.6H5.9999V14.4C5.9999 14.0817 5.87347 13.7765 5.64843 13.5515C5.42339 13.3264 5.11816 13.2 4.7999 13.2H3.5999ZM16.7999 13.2C16.4816 13.2 16.1764 13.3264 15.9514 13.5515C15.7263 13.7765 15.5999 14.0817 15.5999 14.4V15.6H14.3999V14.4C14.3999 13.7635 14.6528 13.153 15.1028 12.7029C15.5529 12.2528 16.1634 12 16.7999 12H17.9999V13.2H16.7999ZM16.7999 8.39999H17.9999V9.59999H16.7999C16.1634 9.59999 15.5529 9.34713 15.1028 8.89704C14.6528 8.44696 14.3999 7.83651 14.3999 7.19999V5.99999H15.5999V7.19999C15.5999 7.51825 15.7263 7.82347 15.9514 8.04852C16.1764 8.27356 16.4816 8.39999 16.7999 8.39999ZM20.3999 15C20.3999 15.7956 20.0838 16.5587 19.5212 17.1213C18.9586 17.6839 18.1956 18 17.3999 18H4.9019C5.02603 18.3511 5.256 18.655 5.56011 18.87C5.86423 19.0849 6.22751 19.2002 6.5999 19.2H17.3999C18.5138 19.2 19.5821 18.7575 20.3698 17.9698C21.1574 17.1822 21.5999 16.1139 21.5999 15V8.99999C21.6001 8.6276 21.4848 8.26431 21.2699 7.9602C21.0549 7.65609 20.751 7.42612 20.3999 7.30199V15Z" fill="black"/>
</svg>
