<svg width="24" height="24" viewBox="0 0 24 24" fill="none" xmlns="http://www.w3.org/2000/svg">
<path d="M12 1C13.1046 1 14 1.89543 14 3C14 3.375 13.8944 3.72448 13.7148 4.02441L17.4121 9.2002H19C20.5463 9.2002 21.7996 10.4538 21.7998 12V18C21.7998 19.5464 20.5464 20.7998 19 20.7998H5C3.45361 20.7998 2.20021 19.5464 2.2002 18V12C2.20039 10.4538 3.45373 9.2002 5 9.2002H6.58789L10.2842 4.02441C10.1048 3.72457 10 3.37483 10 3C10 1.89543 10.8954 1 12 1ZM5 10.7998C4.33738 10.7998 3.8 11.3374 3.7998 12V18C3.79982 18.6627 4.33727 19.2002 5 19.2002H19C19.6627 19.2002 20.2002 18.6627 20.2002 18V12C20.2 11.3374 19.6626 10.7998 19 10.7998H5ZM16.082 15.7041C16.4852 15.7452 16.7996 16.086 16.7998 16.5C16.7998 16.9141 16.4853 17.2548 16.082 17.2959L16 17.2998H8C7.55819 17.2998 7.20022 16.9418 7.2002 16.5C7.20039 16.0583 7.55829 15.7002 8 15.7002H16L16.082 15.7041ZM16.082 12.7041C16.4852 12.7452 16.7996 13.086 16.7998 13.5C16.7998 13.9141 16.4853 14.2548 16.082 14.2959L16 14.2998H8C7.5582 14.2998 7.20024 13.9418 7.2002 13.5C7.20039 13.0583 7.55829 12.7002 8 12.7002H16L16.082 12.7041ZM12.4141 4.95605C12.2804 4.98421 12.142 5 12 5C11.8576 5 11.7189 4.98434 11.585 4.95605L8.55469 9.2002H15.4453L12.4141 4.95605Z" fill="black"/>
</svg>
