<svg width="24" height="24" viewBox="0 0 24 24" fill="none" xmlns="http://www.w3.org/2000/svg">
<path d="M12 2.32031C14.5673 2.32031 17.0294 3.33992 18.8447 5.15527C20.6601 6.97063 21.6797 9.4327 21.6797 12C21.6797 14.5673 20.6601 17.0294 18.8447 18.8447C17.0294 20.6601 14.5673 21.6797 12 21.6797C9.4327 21.6797 6.97063 20.6601 5.15527 18.8447C3.33992 17.0294 2.32031 14.5673 2.32031 12C2.32031 9.4327 3.33992 6.97063 5.15527 5.15527C6.97063 3.33992 9.4327 2.32031 12 2.32031ZM12 3.67969C9.7934 3.67969 7.67749 4.55688 6.11719 6.11719C4.55688 7.67749 3.67969 9.7934 3.67969 12C3.67969 14.2066 4.55689 16.3225 6.11719 17.8828C7.67749 19.4431 9.7934 20.3203 12 20.3203C14.2066 20.3203 16.3225 19.4431 17.8828 17.8828C19.4431 16.3225 20.3203 14.2066 20.3203 12C20.3203 9.7934 19.4431 7.67749 17.8828 6.11719C16.3225 4.55689 14.2066 3.67969 12 3.67969ZM11.1182 7.33008C11.2343 7.35051 11.3439 7.40117 11.4355 7.47754C11.5556 7.57756 11.6369 7.716 11.667 7.86914L11.6797 8.00684V12.3203H15.001C15.1707 12.3201 15.3345 12.3828 15.46 12.4971C15.5855 12.6115 15.6633 12.7693 15.6787 12.9385C15.6941 13.1077 15.6459 13.2769 15.543 13.4121C15.4415 13.5453 15.2942 13.6355 15.1299 13.667L14.9932 13.6797H11C10.8409 13.6797 10.6867 13.6243 10.5645 13.5225C10.4436 13.4218 10.3616 13.2823 10.332 13.1279L10.3203 12.9883V8C10.3203 7.81965 10.392 7.64706 10.5195 7.51953C10.6471 7.39201 10.8197 7.32031 11 7.32031L11.1182 7.33008Z" fill="black"/>
</svg>
