<svg width="24" height="24" viewBox="0 0 24 24" fill="none" xmlns="http://www.w3.org/2000/svg">
<path d="M15.5 13C16.3284 13 17 13.6716 17 14.5C17 15.3284 16.3284 16 15.5 16H3.5C2.67157 16 2 15.3284 2 14.5C2.00001 13.6716 2.67158 13 3.5 13H15.5ZM18.9053 13.0137C19.0538 13.0403 19.1816 13.1064 19.2881 13.2129C19.4301 13.3549 19.5007 13.534 19.5 13.75V15.25C19.5 15.4831 19.4379 15.6665 19.3135 15.7998C19.1888 15.9331 19.0336 16 18.8496 16L18.8418 15.9922C18.8119 15.9951 18.7815 16.0001 18.75 16C18.534 15.9993 18.3549 15.9284 18.2129 15.7871C18.0709 15.6458 18 15.4667 18 15.25V13.75C18 13.5333 18.0709 13.3542 18.2129 13.2129C18.3549 13.0716 18.534 13.0007 18.75 13L18.9053 13.0137ZM21.25 13C21.4667 13 21.6461 13.0709 21.7881 13.2129C21.9301 13.3549 22.0007 13.534 22 13.75V15.25C22 15.4667 21.9291 15.6461 21.7871 15.7881C21.6451 15.9301 21.466 16.0007 21.25 16C21.034 15.9993 20.8549 15.9284 20.7129 15.7871C20.5709 15.6458 20.5 15.4667 20.5 15.25V13.75C20.5 13.5333 20.5709 13.3542 20.7129 13.2129C20.8549 13.0716 21.034 13.0007 21.25 13ZM14.5 2C14.7167 2.00001 14.8961 2.0709 15.0381 2.2129C15.1801 2.3549 15.2507 2.534 15.25 2.75C15.2493 2.966 15.1784 3.14543 15.0371 3.28809C14.8958 3.43076 14.7167 3.50134 14.5 3.5C14 3.5 13.5669 3.6754 13.2002 4.0254C12.8337 4.3753 12.6505 4.8165 12.6504 5.34961C12.6504 5.88295 12.8335 6.32481 13.2002 6.67481C13.5669 7.0248 14 7.2002 14.5 7.2002H16.0498C16.983 7.2002 17.7914 7.49985 18.4746 8.09961C19.1578 8.69953 19.4999 9.44979 19.5 10.3496V11.25C19.5 11.4667 19.4291 11.6461 19.2871 11.7881C19.1451 11.9301 18.966 12.0007 18.75 12C18.5333 12 18.3542 11.9291 18.2129 11.7871C18.0716 11.6451 18.0007 11.466 18 11.25V10.7002C18 10.0502 17.8081 9.55423 17.4248 9.2129C17.0415 8.87166 16.5831 8.70087 16.0498 8.7002H14.5C13.5667 8.7002 12.775 8.37461 12.125 7.72461C11.4751 7.07465 11.1504 6.28286 11.1504 5.34961C11.1505 4.41645 11.4751 3.62452 12.125 2.97461C12.775 2.32474 13.5668 2 14.5 2ZM19.0996 1.59961C19.3156 1.59895 19.495 1.67081 19.6377 1.81348C19.7802 1.95605 19.8509 2.1345 19.8496 2.34961C19.8496 2.83295 19.7585 3.27109 19.5752 3.66309C19.3919 4.05509 19.1496 4.41734 18.8496 4.75C19.7829 5.18334 20.5417 5.85 21.125 6.75C21.7083 7.65 22 8.65001 22 9.75V11.25C22 11.4667 21.9291 11.6461 21.7871 11.7881C21.6451 11.9301 21.466 12.0007 21.25 12C21.0333 12 20.8542 11.9291 20.7129 11.7871C20.5716 11.6451 20.5007 11.466 20.5 11.25V9.75C20.5 8.65001 20.1163 7.70039 19.3496 6.9004C18.5829 6.1004 17.6333 5.7002 16.5 5.7002C16.2834 5.7002 16.1042 5.62924 15.9629 5.48731C15.8216 5.34535 15.7507 5.16611 15.75 4.9502C15.7493 4.73425 15.8203 4.55508 15.9629 4.41309C16.1056 4.27109 16.2847 4.2002 16.5 4.2002C16.9999 4.2002 17.4332 4.01687 17.7998 3.6504C18.1665 3.28373 18.3496 2.84961 18.3496 2.34961C18.3497 2.13312 18.4216 1.95473 18.5635 1.81348C18.7054 1.67223 18.8838 1.60036 19.0996 1.59961Z" fill="black"/>
</svg>
