<svg width="24" height="24" viewBox="0 0 24 24" fill="none" xmlns="http://www.w3.org/2000/svg">
<path d="M12 1C13.1046 1 14 1.89543 14 3C14 3.375 13.8944 3.72448 13.7148 4.02441L17.4121 9.2002H19C20.5464 9.2002 21.7998 10.4536 21.7998 12V18C21.7998 19.5464 20.5464 20.7998 19 20.7998H5C3.4536 20.7998 2.2002 19.5464 2.2002 18V12C2.2002 10.4536 3.4536 9.2002 5 9.2002H6.58789L10.2842 4.02441C10.1048 3.72457 10 3.37483 10 3C10 1.89543 10.8954 1 12 1ZM8 15.7002C7.55817 15.7002 7.2002 16.0582 7.2002 16.5C7.2002 16.9418 7.55817 17.2998 8 17.2998H16L16.082 17.2959C16.4853 17.2548 16.7998 16.9141 16.7998 16.5C16.7998 16.0859 16.4853 15.7452 16.082 15.7041L16 15.7002H8ZM8 12.7002C7.55817 12.7002 7.2002 13.0582 7.2002 13.5C7.2002 13.9418 7.55817 14.2998 8 14.2998H16L16.082 14.2959C16.4853 14.2548 16.7998 13.9141 16.7998 13.5C16.7998 13.0859 16.4853 12.7452 16.082 12.7041L16 12.7002H8ZM12.4141 4.95605C12.2804 4.98421 12.142 5 12 5C11.8576 5 11.7189 4.98434 11.585 4.95605L8.55469 9.2002H15.4453L12.4141 4.95605Z" fill="black"/>
</svg>
