<svg width="24" height="24" viewBox="0 0 24 24" fill="none" xmlns="http://www.w3.org/2000/svg">
<path d="M18.1064 12.6691H5.89317C5.76305 12.6696 5.63565 12.632 5.52667 12.5609C5.41768 12.4898 5.33188 12.3884 5.27984 12.2691C4.79226 11.1531 4.59031 9.93325 4.69223 8.71964C4.79414 7.50604 5.1967 6.33692 5.86356 5.31784C6.53043 4.29877 7.4406 3.46182 8.51191 2.88257C9.58321 2.30332 10.7819 2 11.9998 2C13.2177 2 14.4164 2.30332 15.4877 2.88257C16.559 3.46182 17.4692 4.29877 18.136 5.31784C18.8029 6.33692 19.2055 7.50604 19.3074 8.71964C19.4093 9.93325 19.2073 11.1531 18.7198 12.2691C18.6677 12.3884 18.5819 12.4898 18.4729 12.5609C18.3639 12.632 18.2365 12.6696 18.1064 12.6691ZM6.3465 11.3358H17.6798C17.9025 10.693 18.0108 10.0161 17.9998 9.33583C17.9998 7.74454 17.3676 6.21843 16.2424 5.09322C15.1172 3.96801 13.5911 3.33587 11.9998 3.33587C10.4085 3.33587 8.88239 3.96801 7.75718 5.09322C6.63197 6.21843 5.99983 7.74454 5.99983 9.33583C5.99734 10.0177 6.11468 10.6946 6.3465 11.3358Z" fill="black"/>
<path d="M15.0532 12.6691H8.94654C8.79151 12.6726 8.64013 12.6219 8.51845 12.5257C8.39677 12.4296 8.3124 12.2941 8.27988 12.1424C8.08672 11.2196 7.99285 10.2786 7.99988 9.33579C7.99988 5.22248 9.75987 2.0025 11.9999 2.0025C14.2398 2.0025 15.9998 5.22248 15.9998 9.33579C16.0025 10.2791 15.9041 11.22 15.7065 12.1424C15.6744 12.2918 15.592 12.4256 15.4731 12.5215C15.3542 12.6173 15.2059 12.6695 15.0532 12.6691ZM9.4932 11.3358H14.5065C14.6146 10.6746 14.6681 10.0057 14.6665 9.33579C14.6665 5.80248 13.2598 3.33583 11.9999 3.33583C10.7399 3.33583 9.3332 5.80248 9.3332 9.33579C9.33159 10.0057 9.38511 10.6746 9.4932 11.3358Z" fill="black"/>
<path d="M11.9999 22.0024C11.8231 22.0024 11.6535 21.9322 11.5285 21.8072C11.4035 21.6821 11.3333 21.5126 11.3333 21.3358V12.0025C11.3333 11.8257 11.4035 11.6561 11.5285 11.5311C11.6535 11.4061 11.8231 11.3358 11.9999 11.3358C12.1767 11.3358 12.3463 11.4061 12.4713 11.5311C12.5963 11.6561 12.6666 11.8257 12.6666 12.0025V21.3358C12.6666 21.5126 12.5963 21.6821 12.4713 21.8072C12.3463 21.9322 12.1767 22.0024 11.9999 22.0024Z" fill="black"/>
<path d="M13.3333 22.0024H10.6667C10.4899 22.0024 10.3203 21.9322 10.1953 21.8071C10.0702 21.6821 10 21.5125 10 21.3357C10 21.1589 10.0702 20.9894 10.1953 20.8643C10.3203 20.7393 10.4899 20.6691 10.6667 20.6691H13.3333C13.5101 20.6691 13.6797 20.7393 13.8047 20.8643C13.9297 20.9894 14 21.1589 14 21.3357C14 21.5125 13.9297 21.6821 13.8047 21.8071C13.6797 21.9322 13.5101 22.0024 13.3333 22.0024Z" fill="black"/>
<path d="M6.66664 22.0024C6.48983 22.0024 6.32026 21.9322 6.19524 21.8072C6.07021 21.6821 5.99998 21.5126 5.99998 21.3358V18.0025H3.33333V21.3358C3.33333 21.5126 3.26309 21.6821 3.13806 21.8072C3.01304 21.9322 2.84347 22.0024 2.66666 22.0024C2.48985 22.0024 2.32028 21.9322 2.19526 21.8072C2.07024 21.6821 2 21.5126 2 21.3358V17.3358C2 17.159 2.07024 16.9894 2.19526 16.8644C2.32028 16.7394 2.48985 16.6691 2.66666 16.6691H6.66664C6.84345 16.6691 7.01302 16.7394 7.13804 16.8644C7.26306 16.9894 7.3333 17.159 7.3333 17.3358V21.3358C7.3333 21.5126 7.26306 21.6821 7.13804 21.8072C7.01302 21.9322 6.84345 22.0024 6.66664 22.0024Z" fill="black"/>
<path d="M2.66666 22.0024C2.48985 22.0024 2.32028 21.9322 2.19526 21.8071C2.07024 21.6821 2 21.5126 2 21.3357V13.3358C2 13.159 2.07024 12.9894 2.19526 12.8644C2.32028 12.7394 2.48985 12.6691 2.66666 12.6691C2.84347 12.6691 3.01304 12.7394 3.13806 12.8644C3.26309 12.9894 3.33333 13.159 3.33333 13.3358V21.3357C3.33333 21.5126 3.26309 21.6821 3.13806 21.8071C3.01304 21.9322 2.84347 22.0024 2.66666 22.0024Z" fill="black"/>
<path d="M21.3331 22.0024C21.1563 22.0024 20.9868 21.9322 20.8617 21.8072C20.7367 21.6821 20.6665 21.5126 20.6665 21.3358V18.0025H17.9998V21.3358C17.9998 21.5126 17.9296 21.6821 17.8046 21.8072C17.6795 21.9322 17.51 22.0024 17.3332 22.0024C17.1564 22.0024 16.9868 21.9322 16.8618 21.8072C16.7367 21.6821 16.6665 21.5126 16.6665 21.3358V17.3358C16.6665 17.159 16.7367 16.9894 16.8618 16.8644C16.9868 16.7394 17.1564 16.6691 17.3332 16.6691H21.3331C21.51 16.6691 21.6795 16.7394 21.8045 16.8644C21.9296 16.9894 21.9998 17.159 21.9998 17.3358V21.3358C21.9998 21.5126 21.9296 21.6821 21.8045 21.8072C21.6795 21.9322 21.51 22.0024 21.3331 22.0024Z" fill="black"/>
<path d="M21.3334 22.0024C21.1566 22.0024 20.987 21.9322 20.862 21.8071C20.737 21.6821 20.6667 21.5126 20.6667 21.3357V13.3358C20.6667 13.159 20.737 12.9894 20.862 12.8644C20.987 12.7394 21.1566 12.6691 21.3334 12.6691C21.5102 12.6691 21.6798 12.7394 21.8048 12.8644C21.9298 12.9894 22.0001 13.159 22.0001 13.3358V21.3357C22.0001 21.5126 21.9298 21.6821 21.8048 21.8071C21.6798 21.9322 21.5102 22.0024 21.3334 22.0024Z" fill="black"/>
<path d="M15.3333 16.6691H8.66666C8.48985 16.6691 8.32028 16.5988 8.19526 16.4738C8.07024 16.3488 8 16.1792 8 16.0024C8 15.8256 8.07024 15.656 8.19526 15.531C8.32028 15.406 8.48985 15.3358 8.66666 15.3358H15.3333C15.5101 15.3358 15.6797 15.406 15.8047 15.531C15.9297 15.656 16 15.8256 16 16.0024C16 16.1792 15.9297 16.3488 15.8047 16.4738C15.6797 16.5988 15.5101 16.6691 15.3333 16.6691Z" fill="black"/>
</svg>
