<svg width="24" height="24" viewBox="0 0 24 24" fill="none" xmlns="http://www.w3.org/2000/svg">
<path d="M12.5629 11.5308C12.7204 11.5536 12.8805 11.5128 13.008 11.4175C13.1355 11.3222 13.2199 11.1801 13.2427 11.0226C13.2654 10.8651 13.2247 10.7049 13.1294 10.5774C13.0341 10.45 12.892 10.3656 12.7345 10.3428C11.4433 10.1568 9.90967 11.2092 9.90967 12.9384C9.90967 13.0975 9.97288 13.2501 10.0854 13.3627C10.1979 13.4752 10.3505 13.5384 10.5097 13.5384C10.6688 13.5384 10.8214 13.4752 10.9339 13.3627C11.0465 13.2501 11.1097 13.0975 11.1097 12.9384C11.1097 11.9784 11.9581 11.4432 12.5629 11.5308ZM4.79167 8.5608C1.89127 10.8504 1.81567 14.7312 3.17527 17.3448C4.08847 19.1016 5.84527 20.6652 8.48047 20.6652C9.13447 20.6652 9.60607 20.6472 9.97807 20.634C11.1025 20.5908 11.3065 20.5836 12.8725 21.21C14.9557 22.0428 17.1709 21.7956 19.0213 20.6388C20.6869 19.5972 21.6433 17.1804 21.4813 15.2184C21.3841 14.04 21.4717 13.5792 21.5845 12.984C21.6921 12.4518 21.7634 11.913 21.7981 11.3712C21.9265 9.4572 21.0241 7.6608 20.5333 6.804C20.0425 5.9472 19.2133 4.608 17.2645 3.378C15.6649 2.36759 12.6349 1.88399 10.2373 3.20279C8.48047 4.16879 7.60207 5.0472 6.54847 6.8028C6.14887 7.4688 5.76607 7.7904 4.79167 8.5608ZM17.8801 12.558C17.8801 13.2663 17.7405 13.9678 17.4695 14.6222C17.1984 15.2766 16.8011 15.8713 16.3002 16.3721C15.7993 16.873 15.2047 17.2703 14.5503 17.5414C13.8958 17.8125 13.1944 17.952 12.4861 17.952C11.7777 17.952 11.0763 17.8125 10.4219 17.5414C9.76744 17.2703 9.17281 16.873 8.67193 16.3721C8.17105 15.8713 7.77374 15.2766 7.50266 14.6222C7.23159 13.9678 7.09207 13.2663 7.09207 12.558C7.09207 11.1274 7.66036 9.75543 8.67193 8.74386C9.68351 7.73229 11.0555 7.164 12.4861 7.164C13.9166 7.164 15.2886 7.73229 16.3002 8.74386C17.3118 9.75543 17.8801 11.1274 17.8801 12.558Z" fill="black"/>
</svg>
