<svg width="24" height="24" viewBox="0 0 24 24" fill="none" xmlns="http://www.w3.org/2000/svg">
<path d="M13.8001 3.59762C13.3227 3.59762 12.8649 3.78726 12.5273 4.12482C12.1897 4.46239 12.0001 4.92023 12.0001 5.39762C12.0001 5.87501 12.1897 6.33284 12.5273 6.67041C12.8649 7.00797 13.3227 7.19762 13.8001 7.19762C14.2775 7.19762 14.7353 7.00797 15.0729 6.67041C15.4105 6.33284 15.6001 5.87501 15.6001 5.39762C15.6001 4.92023 15.4105 4.46239 15.0729 4.12482C14.7353 3.78726 14.2775 3.59762 13.8001 3.59762ZM10.8001 5.39762C10.8002 4.88884 10.9298 4.38845 11.1765 3.94351C11.4232 3.49856 11.7791 3.12368 12.2106 2.8541C12.642 2.58453 13.135 2.42912 13.6431 2.40249C14.1512 2.37586 14.6577 2.47889 15.115 2.70188C15.5723 2.92487 15.9654 3.26051 16.2573 3.67722C16.5492 4.09394 16.7303 4.57804 16.7836 5.08402C16.8369 5.59 16.7607 6.10122 16.562 6.56962C16.3634 7.03802 16.0489 7.44821 15.6481 7.76162C16.2413 8.01353 16.7477 8.43361 17.1049 8.97002L17.7349 9.91562L19.5217 11.1912C19.7497 11.35 19.944 11.5525 20.0932 11.7869C20.2424 12.0213 20.3436 12.283 20.391 12.5568C20.4383 12.8307 20.4308 13.1112 20.369 13.3821C20.3071 13.653 20.1921 13.9089 20.0306 14.135C19.8691 14.3612 19.6643 14.553 19.4281 14.6994C19.192 14.8458 18.9291 14.9439 18.6547 14.988C18.3803 15.0321 18.0999 15.0212 17.8298 14.9561C17.5596 14.8911 17.3051 14.773 17.0809 14.6088L14.9809 13.1088L14.8729 13.026L14.8549 13.0788L15.9865 14.79C16.2865 15.246 16.4701 15.768 16.5193 16.3104L16.7917 19.3104C16.8313 19.8591 16.6539 20.4015 16.2978 20.8208C15.9417 21.2402 15.4353 21.503 14.8874 21.5529C14.3395 21.6027 13.7939 21.4355 13.368 21.0873C12.9421 20.7391 12.6698 20.2377 12.6097 19.6908L12.3577 16.9164L11.7649 16.02L10.0489 20.2836C9.83711 20.7946 9.43227 21.2014 8.92232 21.4156C8.41236 21.6298 7.83847 21.6342 7.3253 21.4278C6.81213 21.2214 6.40111 20.8209 6.18152 20.3132C5.96193 19.8055 5.9515 19.2317 6.1525 18.7164L7.7689 14.6988C7.41851 14.7135 7.07001 14.6403 6.75521 14.4857C6.44041 14.3311 6.16933 14.1001 5.96672 13.8139C5.76411 13.5276 5.63642 13.1952 5.5953 12.8469C5.55418 12.4986 5.60093 12.1456 5.7313 11.82L7.0513 8.52002C7.17483 8.21162 7.36977 7.93693 7.6201 7.71852C7.87043 7.50011 8.16901 7.3442 8.4913 7.26362L10.3393 6.80162C10.5913 6.73762 10.8441 6.70482 11.0977 6.70322C10.9014 6.296 10.7997 5.84968 10.8001 5.39762ZM11.1817 7.82762L8.7817 8.42762C8.64338 8.46207 8.51523 8.52888 8.40778 8.62255C8.30034 8.71623 8.21668 8.83408 8.1637 8.96642L6.8437 12.2664C6.79555 12.3769 6.77007 12.4959 6.76877 12.6164C6.76747 12.7369 6.79038 12.8564 6.83614 12.9678C6.8819 13.0793 6.94958 13.1805 7.03516 13.2653C7.12075 13.3501 7.22249 13.4169 7.33436 13.4617C7.44624 13.5064 7.56596 13.5283 7.68643 13.5259C7.80691 13.5235 7.92568 13.497 8.0357 13.4478C8.14573 13.3987 8.24476 13.328 8.32694 13.2399C8.40912 13.1517 8.47276 13.048 8.5141 12.9348L9.5533 10.3392C9.58017 10.2654 9.62161 10.1978 9.67515 10.1403C9.7287 10.0828 9.79326 10.0367 9.86499 10.0047C9.93671 9.97274 10.0141 9.9555 10.0927 9.95404C10.1712 9.95257 10.2492 9.96693 10.3221 9.99623C10.395 10.0255 10.4612 10.0692 10.5168 10.1246C10.5725 10.1801 10.6164 10.2461 10.646 10.3189C10.6756 10.3916 10.6903 10.4696 10.6891 10.5481C10.688 10.6267 10.671 10.7042 10.6393 10.776L7.2649 19.164C7.21715 19.2743 7.19195 19.393 7.19081 19.5131C7.18966 19.6333 7.21259 19.7525 7.25824 19.8636C7.30388 19.9748 7.37132 20.0756 7.45658 20.1603C7.54184 20.245 7.64319 20.3117 7.75465 20.3566C7.86612 20.4015 7.98544 20.4236 8.10558 20.4216C8.22572 20.4196 8.34425 20.3936 8.45418 20.3451C8.56411 20.2966 8.6632 20.2265 8.74563 20.1391C8.82806 20.0517 8.89214 19.9486 8.9341 19.836L10.6501 15.5724C10.7318 15.3694 10.8675 15.1926 11.0424 15.0611C11.2174 14.9296 11.425 14.8485 11.6427 14.8265C11.8605 14.8045 12.0801 14.8424 12.2778 14.9363C12.4755 15.0301 12.6438 15.1762 12.7645 15.3588L13.4821 16.4448C13.5092 16.4862 13.5257 16.5336 13.5301 16.5828L13.8025 19.5828C13.8243 19.8206 13.9397 20.0399 14.1232 20.1926C14.3067 20.3453 14.5434 20.4188 14.7811 20.397C15.0188 20.3752 15.2382 20.2599 15.3909 20.0763C15.5436 19.8928 15.6171 19.6562 15.5953 19.4184L15.3229 16.4196C15.2913 16.0741 15.1747 15.7418 14.9833 15.4524L13.8745 13.7724C13.7702 13.6144 13.7047 13.434 13.6834 13.2459C13.6621 13.0578 13.6857 12.8673 13.7521 12.69L14.2057 11.478C14.2386 11.3909 14.2949 11.3145 14.3683 11.2573C14.4418 11.2001 14.5296 11.1642 14.6222 11.1537C14.7147 11.1431 14.8083 11.1583 14.8928 11.1975C14.9773 11.2368 15.0493 11.2985 15.1009 11.376L15.4501 11.8992C15.5109 11.9912 15.5861 12.0688 15.6757 12.132L17.7757 13.632C17.8716 13.704 17.981 13.7561 18.0974 13.7852C18.2137 13.8144 18.3347 13.8199 18.4533 13.8016C18.5718 13.7833 18.6855 13.7415 18.7877 13.6786C18.8898 13.6158 18.9784 13.5331 19.0481 13.4355C19.1179 13.3379 19.1674 13.2274 19.1938 13.1104C19.2202 12.9934 19.223 12.8723 19.2019 12.7542C19.1809 12.6361 19.1364 12.5234 19.0712 12.4228C19.006 12.3221 18.9213 12.2355 18.8221 12.168L17.0353 10.8912C16.9173 10.8066 16.8157 10.7013 16.7353 10.5804L15.7477 9.10082C15.6234 8.91482 15.4343 8.78178 15.2173 8.72762L11.6173 7.82762C11.4743 7.79195 11.3247 7.79195 11.1817 7.82762Z" fill="black"/>
</svg>
