<svg width="24" height="24" viewBox="0 0 24 24" fill="none" xmlns="http://www.w3.org/2000/svg">
<path d="M14.3999 7.24799L9.5999 3.88799V16.752L14.3999 20.112V7.24799ZM15.5999 20.112L21.3443 16.092C21.4233 16.0366 21.4878 15.9629 21.5323 15.8773C21.5768 15.7916 21.6 15.6965 21.5999 15.6V4.19999C21.6 4.09014 21.57 3.98237 21.5131 3.88841C21.4562 3.79446 21.3745 3.71794 21.2771 3.66718C21.1797 3.61643 21.0702 3.5934 20.9606 3.60059C20.851 3.60779 20.7455 3.64494 20.6555 3.70799L15.5999 7.24799V20.112ZM2.6555 7.90799L8.3999 3.88799V16.752L3.3443 20.292C3.25435 20.355 3.14882 20.3922 3.03921 20.3994C2.92959 20.4066 2.82011 20.3836 2.72269 20.3328C2.62526 20.282 2.54365 20.2055 2.48673 20.1116C2.42981 20.0176 2.39978 19.9098 2.3999 19.8V8.39999C2.39979 8.30347 2.42297 8.20835 2.46747 8.1227C2.51196 8.03705 2.57647 7.96339 2.6555 7.90799Z" fill="black"/>
</svg>
