<svg width="24" height="24" viewBox="0 0 24 24" fill="none" xmlns="http://www.w3.org/2000/svg">
<path d="M7.47481 9.546C7.47481 9.38687 7.53803 9.23426 7.65055 9.12174C7.76307 9.00921 7.91568 8.946 8.07481 8.946H13.29C13.4491 8.946 13.6018 9.00921 13.7143 9.12174C13.8268 9.23426 13.89 9.38687 13.89 9.546V14.454C13.89 14.6131 13.8268 14.7657 13.7143 14.8783C13.6018 14.9908 13.4491 15.054 13.29 15.054H8.07481C7.91568 15.054 7.76307 14.9908 7.65055 14.8783C7.53803 14.7657 7.47481 14.6131 7.47481 14.454V9.546ZM8.67481 13.854H12.69V10.146H8.67481V13.854ZM2.15281 5.9748C2.88001 4.3272 4.52401 3 6.48241 3H18.3948C20.5116 3 22.8132 4.7508 22.8132 7.4184C22.8132 9.012 21.8952 10.368 21.2808 11.0292C21.2664 11.8788 21.3024 13.0176 21.3432 14.2332L21.3552 14.5908C21.3972 15.8016 21.4404 17.0556 21.4404 18.1092C21.4404 19.0908 21.3336 19.932 20.742 20.4516C20.4468 20.7108 20.0856 20.8416 19.7052 20.9124C19.272 20.9815 18.8334 21.0108 18.3948 21H6.17641C4.76641 21 3.90361 20.5788 3.46681 19.8492C3.11521 19.2624 3.12601 18.5772 3.13081 18.2172L3.13321 18.1092V11.046C1.57201 9.5664 1.44481 7.5792 2.15281 5.9748ZM6.48241 4.2C5.08201 4.2 3.82201 5.1636 3.25081 6.4584C2.69161 7.7232 2.82721 9.2208 4.12201 10.3212C4.18809 10.3774 4.24119 10.4473 4.27765 10.526C4.31411 10.6047 4.33307 10.6904 4.33321 10.7772V18.2232C4.33081 18.6228 4.32961 18.9552 4.49521 19.2312C4.63081 19.458 4.99081 19.8 6.17641 19.8H15.3408C15.8196 19.8 16.1568 19.7808 16.4028 19.7328C16.6428 19.686 16.7424 19.6224 16.794 19.5732C16.8444 19.524 16.9092 19.4268 16.9584 19.1868C17.0088 18.9408 17.0304 18.5988 17.0304 18.1092C17.0304 17.3616 17.0256 16.5372 17.0196 15.7044C17.0076 14.0064 16.9956 12.2688 17.0316 11.0664C17.0357 10.913 17.0984 10.767 17.2068 10.6584C17.3388 10.5288 17.4628 10.4104 17.5788 10.3032C17.8584 10.044 18.0996 9.8184 18.3264 9.486C18.618 9.0564 18.8724 8.4456 18.9276 7.404C18.9228 6.5952 18.4596 5.7996 17.7336 5.184C17.0004 4.5612 16.086 4.2 15.3408 4.2H6.48241ZM18.1344 19.428C18.1088 19.556 18.074 19.68 18.03 19.8H18.3948C18.8724 19.8 19.2228 19.7808 19.4868 19.7316C19.7472 19.6836 19.8756 19.6152 19.95 19.5504C20.094 19.4232 20.2404 19.1184 20.2404 18.1092C20.2404 17.0772 20.1984 15.8448 20.1564 14.6292L20.1444 14.2728C20.0988 12.9552 20.0604 11.6748 20.0856 10.7604C20.0904 10.6019 20.1577 10.4518 20.2728 10.3428C20.7504 9.8892 21.6132 8.712 21.6132 7.4184C21.6132 5.5176 19.9668 4.218 18.4272 4.2L18.51 4.2684C19.4136 5.0352 20.1276 6.1428 20.1276 7.4184V7.4496C20.064 8.688 19.752 9.5232 19.3176 10.1616C19.0092 10.614 18.624 10.9728 18.318 11.2584L18.2244 11.3448C18.198 12.5088 18.2088 14.0916 18.2196 15.6624C18.2256 16.5024 18.2316 17.34 18.2316 18.1092C18.2316 18.6156 18.21 19.0572 18.1344 19.4268" fill="black"/>
</svg>
