<svg width="24" height="24" viewBox="0 0 24 24" fill="none" xmlns="http://www.w3.org/2000/svg">
<path d="M1.86711 2.71582C2.25764 2.32535 2.89067 2.32531 3.28117 2.71582L21.2802 20.7148C21.6706 21.1054 21.6706 21.7384 21.2802 22.1289C20.8897 22.5194 20.2567 22.5193 19.8661 22.1289L17.9999 20.2627V21.3359C17.9999 21.5127 17.9296 21.6826 17.8046 21.8076C17.6796 21.9325 17.5096 22.0019 17.3329 22.002C17.1562 22.0019 16.9862 21.9326 16.8613 21.8076C16.7363 21.6826 16.667 21.5127 16.6669 21.3359V18.9297L14.4062 16.6689H12.6669V20.6689H13.3329C13.5097 20.669 13.6796 20.7393 13.8046 20.8643C13.9296 20.9893 13.9999 21.1591 13.9999 21.3359C13.9999 21.5127 13.9296 21.6826 13.8046 21.8076C13.6796 21.9325 13.5096 22.0019 13.3329 22.002H10.6669C10.4903 22.002 10.3202 21.9324 10.1952 21.8076C10.0703 21.6826 9.99998 21.5127 9.99992 21.3359C9.99992 21.1591 10.0702 20.9893 10.1952 20.8643C10.3203 20.7393 10.4902 20.6689 10.6669 20.6689H11.3329V16.6689H8.66692C8.49012 16.6689 8.32026 16.5986 8.19524 16.4736C8.07026 16.3486 7.99992 16.1787 7.99992 16.002C8.00005 15.8254 8.07038 15.6562 8.19524 15.5312C8.32026 15.4063 8.49012 15.3359 8.66692 15.3359H11.3329V13.5957L10.4062 12.6689H5.89348C5.76339 12.6694 5.63526 12.6316 5.52629 12.5605C5.41764 12.4896 5.33221 12.3884 5.2802 12.2695C4.79263 11.1535 4.59041 9.93331 4.69231 8.71973C4.73467 8.21523 4.83096 7.71895 4.97453 7.2373L1.86711 4.12988C1.47659 3.73936 1.47659 3.10634 1.86711 2.71582ZM2.66692 12.6689C2.84346 12.6691 3.01272 12.7395 3.13762 12.8643C3.26262 12.9893 3.33293 13.1591 3.33293 13.3359V16.6689H6.66692C6.84346 16.6691 7.01272 16.7395 7.13762 16.8643C7.26262 16.9893 7.33293 17.1591 7.33293 17.3359V21.3359C7.33289 21.5127 7.26258 21.6826 7.13762 21.8076C7.01274 21.9323 6.84338 22.0018 6.66692 22.002C6.49025 22.002 6.32023 21.9325 6.19524 21.8076C6.07025 21.6826 5.99997 21.5127 5.99992 21.3359V18.0029H3.33293V21.3359C3.33289 21.5127 3.26258 21.6826 3.13762 21.8076C3.01273 21.9323 2.84339 22.0018 2.66692 22.002C2.49024 22.002 2.32023 21.9325 2.19524 21.8076C2.07025 21.6826 1.99997 21.5127 1.99992 21.3359V13.3359C1.99992 13.1591 2.07021 12.9893 2.19524 12.8643C2.32025 12.7393 2.49017 12.6689 2.66692 12.6689ZM21.3329 12.6689C21.5097 12.669 21.6796 12.7393 21.8046 12.8643C21.9296 12.9893 21.9999 13.1591 21.9999 13.3359V19.7373L20.6659 18.4033V18.0029H20.2655L18.9316 16.6689H20.6669V13.3359C20.6669 13.1591 20.7372 12.9893 20.8622 12.8643C20.9871 12.7395 21.1564 12.6691 21.3329 12.6689ZM12.6669 15.3359H13.0732L12.6669 14.9297V15.3359ZM11.9999 2C13.2176 2.00005 14.4161 2.30367 15.4872 2.88281C16.5584 3.46198 17.4688 4.29853 18.1357 5.31738C18.8025 6.33645 19.2056 7.50613 19.3075 8.71973C19.4094 9.93329 19.2072 11.1536 18.7197 12.2695C18.6676 12.3886 18.5814 12.4895 18.4726 12.5605C18.3636 12.6316 18.2364 12.6694 18.1064 12.6689H14.9316L13.5986 11.3359H14.5068C14.6148 10.6748 14.6685 10.0058 14.6669 9.33594C14.6669 5.80283 13.2599 3.33623 11.9999 3.33594C11.0072 3.33594 9.92289 4.86726 9.50774 7.24512L8.39055 6.12793C8.59729 5.33151 8.87876 4.61849 9.22063 4.01855C8.68597 4.29798 8.19121 4.65834 7.75676 5.09277C7.6897 5.15983 7.62399 5.22801 7.56047 5.29785L6.61809 4.35547C7.16307 3.76656 7.80099 3.2671 8.51164 2.88281C9.58293 2.30358 10.7821 2 11.9999 2ZM6.08489 8.34766C6.03078 8.67238 5.99992 9.00249 5.99992 9.33594C5.99745 10.0177 6.1148 10.6948 6.3466 11.3359H8.13762C8.08722 10.9892 8.0511 10.6406 8.02824 10.291L6.08489 8.34766ZM14.7773 4.01855C15.5332 5.34478 15.9999 7.222 15.9999 9.33594C16.0018 10.0058 15.9518 10.6743 15.8525 11.3359H17.6796C17.9023 10.6931 18.011 10.0161 17.9999 9.33594C17.9999 7.74467 17.3673 6.21798 16.2421 5.09277C15.8074 4.65814 15.3123 4.29801 14.7773 4.01855Z" fill="black"/>
</svg>
