<svg width="24" height="24" viewBox="0 0 24 24" fill="none" xmlns="http://www.w3.org/2000/svg">
<path d="M21.6 8.40001C21.601 6.89833 21.0388 5.45087 20.0245 4.34351C19.0102 3.23614 17.6175 2.54937 16.1215 2.41884C14.6255 2.28831 13.135 2.7235 11.9442 3.63847C10.7535 4.55343 9.94911 5.88165 9.68999 7.36081C9.17759 9.15241 8.69039 10.0992 8.43599 10.5168L6.17519 12.7764C6.09147 12.8604 6.03452 12.9673 6.01151 13.0836C5.98851 13.1999 6.00049 13.3205 6.04594 13.43C6.09139 13.5395 6.16828 13.6331 6.26689 13.699C6.3655 13.7648 6.48141 13.8 6.59999 13.8H7.06679L4.66319 16.2036C4.17971 16.2312 3.71589 16.4044 3.33266 16.7005C2.94943 16.9965 2.66473 17.4016 2.51596 17.8624C2.36719 18.3233 2.36131 18.8183 2.4991 19.2826C2.63689 19.7468 2.9119 20.1585 3.28799 20.4636C3.37919 20.538 3.46199 20.6208 3.53639 20.712C3.84223 21.0887 4.25508 21.3639 4.72048 21.5012C5.18587 21.6385 5.68196 21.6315 6.14331 21.4811C6.60465 21.3308 7.00959 21.0441 7.3047 20.6589C7.59981 20.2738 7.77125 19.8082 7.79639 19.3236L10.2 16.9224V17.4024C10.2003 17.5209 10.2356 17.6366 10.3015 17.7351C10.3675 17.8335 10.4611 17.9102 10.5706 17.9555C10.68 18.0008 10.8005 18.0127 10.9167 17.9896C11.0329 17.9666 11.1397 17.9097 11.2236 17.826L13.47 15.5796C13.884 15.3252 14.8548 14.8224 16.7208 14.2956C17.0048 14.2428 17.2808 14.17 17.5488 14.0772C17.7072 14.0372 17.8552 13.9796 17.9928 13.9044C19.065 13.4381 19.9775 12.6688 20.6184 11.6909C21.2592 10.713 21.6004 9.56918 21.6 8.40001ZM8.76359 13.8H10.2V15.2244L6.85919 18.5664C6.6927 18.7352 6.59956 18.9629 6.59999 19.2C6.60011 19.4481 6.52335 19.6901 6.38026 19.8928C6.23717 20.0954 6.03479 20.2487 5.80097 20.3316C5.56715 20.4145 5.31339 20.4229 5.0746 20.3557C4.83582 20.2884 4.62375 20.1488 4.46759 19.956C4.3415 19.8005 4.19953 19.6585 4.04399 19.5324C3.85123 19.3762 3.71161 19.1642 3.64434 18.9254C3.57708 18.6866 3.58547 18.4328 3.66836 18.199C3.75126 17.9652 3.90458 17.7628 4.10724 17.6197C4.30989 17.4767 4.55191 17.3999 4.79999 17.4C4.91416 17.4008 5.02735 17.3789 5.13301 17.3356C5.23867 17.2924 5.33472 17.2286 5.41559 17.148L8.76359 13.8Z" fill="black"/>
</svg>
