<svg width="24" height="24" viewBox="0 0 24 24" fill="none" xmlns="http://www.w3.org/2000/svg">
<path d="M5.003 4.66001C5.003 3.16401 6.234 1.85601 7.824 2.01301C13.0013 2.52571 17.7979 4.96186 21.266 8.84001C22.336 10.033 22.003 11.804 20.787 12.685L20.364 12.992L20.001 12.452L19.993 12.441C16.803 8.03401 11.613 5.16601 5.753 5.16601H5.003V4.66001ZM18.771 13.31L19.149 13.873L15.202 16.738L15 16.888V18.99C15 19.2552 14.8946 19.5096 14.7071 19.6971C14.5196 19.8846 14.2652 19.99 14 19.99C13.7348 19.99 13.4804 19.8846 13.2929 19.6971C13.1054 19.5096 13 19.2552 13 18.99V18.93C12.984 18.8041 12.9208 18.6891 12.8231 18.6081C12.7254 18.5271 12.6006 18.4863 12.4739 18.494C12.3473 18.5016 12.2283 18.5571 12.141 18.6492C12.0538 18.7413 12.0048 18.8631 12.004 18.99V20.491C12.004 20.7476 11.9054 20.9943 11.7286 21.1803C11.5518 21.3662 11.3103 21.477 11.0541 21.4899C10.7978 21.5027 10.5464 21.4166 10.3519 21.2493C10.1574 21.082 10.0346 20.8463 10.009 20.591L8.569 21.631C7.08 22.705 4.999 21.642 5 19.805L5.003 6.66501H5.753C11.107 6.66501 15.849 9.28201 18.771 13.31ZM9.004 10.99C9.26922 10.99 9.52357 10.8846 9.71111 10.6971C9.89864 10.5096 10.004 10.2552 10.004 9.99001C10.004 9.72479 9.89864 9.47044 9.71111 9.2829C9.52357 9.09536 9.26922 8.99001 9.004 8.99001C8.73878 8.99001 8.48443 9.09536 8.29689 9.2829C8.10936 9.47044 8.004 9.72479 8.004 9.99001C8.004 10.2552 8.10936 10.5096 8.29689 10.6971C8.48443 10.8846 8.73878 10.99 9.004 10.99ZM13.004 13.988C13.2692 13.988 13.5236 13.8826 13.7111 13.6951C13.8986 13.5076 14.004 13.2532 14.004 12.988C14.004 12.7228 13.8986 12.4684 13.7111 12.2809C13.5236 12.0934 13.2692 11.988 13.004 11.988C12.7388 11.988 12.4844 12.0934 12.2969 12.2809C12.1094 12.4684 12.004 12.7228 12.004 12.988C12.004 13.2532 12.1094 13.5076 12.2969 13.6951C12.4844 13.8826 12.7388 13.988 13.004 13.988ZM9.004 16.986C9.26922 16.986 9.52357 16.8806 9.71111 16.6931C9.89864 16.5056 10.004 16.2512 10.004 15.986C10.004 15.7208 9.89864 15.4664 9.71111 15.2789C9.52357 15.0914 9.26922 14.986 9.004 14.986C8.73878 14.986 8.48443 15.0914 8.29689 15.2789C8.10936 15.4664 8.004 15.7208 8.004 15.986C8.004 16.2512 8.10936 16.5056 8.29689 16.6931C8.48443 16.8806 8.73878 16.986 9.004 16.986Z" fill="black"/>
</svg>
