<svg width="24" height="24" viewBox="0 0 24 24" fill="none" xmlns="http://www.w3.org/2000/svg">
<path d="M1.86719 2.71582C2.25771 2.32531 2.89073 2.3253 3.28125 2.71582L21.2803 20.7148C21.6707 21.1054 21.6707 21.7384 21.2803 22.1289C20.8898 22.5194 20.2567 22.5193 19.8662 22.1289L18.1367 20.3994C17.7037 20.4827 17.1913 20.4582 16.5186 20.4346V20.4326C16.1263 20.4199 16.0082 20.4177 15.9033 20.4307L15.9053 20.4326C15.6491 20.4656 15.4054 20.5674 15.2002 20.7256C15.1175 20.7907 15.0327 20.8764 14.7686 21.1592V21.1611C14.3764 21.5804 14.0662 21.9188 13.7549 22.1631L13.4404 22.376C13.0004 22.6221 12.5033 22.751 11.999 22.751C11.6211 22.7509 11.2479 22.6782 10.8994 22.5381L10.5596 22.376C10.1306 22.1363 9.75427 21.7201 9.23145 21.1611V21.1592C8.95874 20.8672 8.88069 20.7877 8.7998 20.7256L8.79785 20.7236C8.59366 20.5658 8.3507 20.4653 8.09473 20.4326V20.4307C8.04302 20.4244 7.98753 20.4244 7.89746 20.4248L7.47949 20.4346C6.90477 20.4541 6.44661 20.4743 6.05371 20.4268L5.68262 20.3545C5.19715 20.2175 4.75422 19.9591 4.39746 19.6025C4.1299 19.335 3.91602 19.0188 3.76855 18.6729L3.64355 18.3174C3.51087 17.8466 3.53844 17.2873 3.56543 16.5186C3.57804 16.1284 3.58008 16.0097 3.56738 15.9053L3.53027 15.7158C3.48082 15.5301 3.39468 15.3553 3.27637 15.2021V15.2002C3.21112 15.1172 3.12473 15.0337 2.84082 14.7686H2.83887C2.41959 14.3764 2.08123 14.0662 1.83691 13.7549L1.62402 13.4404C1.37786 13.0004 1.24902 12.5033 1.24902 11.999C1.24919 11.4951 1.37802 10.9994 1.62402 10.5596L1.83691 10.2451C2.08123 9.93378 2.41959 9.6236 2.83887 9.23145H2.84082L3.14355 8.94434C3.20792 8.88077 3.24333 8.8403 3.27441 8.7998L3.27637 8.79785L3.38379 8.6377C3.4801 8.47136 3.54285 8.28666 3.56738 8.09473C3.57368 8.04295 3.57556 7.98766 3.5752 7.89746L3.56543 7.47949C3.5427 6.80998 3.51769 6.29846 3.60156 5.86426L1.86719 4.12988C1.47666 3.73936 1.47666 3.10634 1.86719 2.71582ZM5.06543 7.42871V7.43066L5.0752 7.89355C5.07533 8.0319 5.07111 8.15783 5.05566 8.28223V8.28418C4.98917 8.80441 4.78235 9.29677 4.46191 9.71191L4.46387 9.71387C4.38592 9.81539 4.29921 9.91024 4.2002 10.0088L3.86426 10.3271C3.21799 10.9316 3.03091 11.1194 2.93457 11.292H2.93262C2.81189 11.5079 2.74919 11.7516 2.74902 11.999C2.74902 12.2468 2.81172 12.4918 2.93262 12.708H2.93457L3.02832 12.8467C3.15192 13.0006 3.37901 13.219 3.86426 13.6729L4.2002 13.9932L4.45996 14.2822L4.46191 14.2842L4.68066 14.6104C4.81132 14.8359 4.91237 15.0773 4.97949 15.3291L5.05566 15.7158V15.7178L5.0752 16.1064C5.07505 16.2442 5.07103 16.3943 5.06543 16.5674V16.5693C5.03447 17.4512 5.03381 17.7202 5.08691 17.9092L5.14941 18.085C5.2218 18.2546 5.32687 18.4088 5.45801 18.54C5.63323 18.7153 5.85041 18.8437 6.08887 18.9111H6.09082L6.25488 18.9424C6.45108 18.9639 6.76555 18.9571 7.42871 18.9346H7.43066L7.89355 18.9248C8.0319 18.9247 8.15783 18.9289 8.28223 18.9443H8.28418L8.6709 19.0205C9.04808 19.121 9.40284 19.296 9.71387 19.5361L10.0088 19.7998C10.1073 19.8988 10.2096 20.0099 10.3271 20.1357L10.9717 20.8076C11.1154 20.9471 11.2058 21.0173 11.292 21.0654V21.0674L11.46 21.1455C11.631 21.2142 11.8136 21.2509 11.999 21.251C12.2468 21.251 12.4918 21.1883 12.708 21.0674V21.0654L12.8467 20.9717C13.0006 20.8481 13.219 20.621 13.6729 20.1357L13.9932 19.7998C14.0907 19.7021 14.1833 19.6172 14.2822 19.54L14.2842 19.5361L14.6104 19.3193C14.9482 19.1237 15.3228 18.9947 15.7139 18.9443H15.7178L16.1064 18.9248C16.2442 18.9249 16.3943 18.929 16.5674 18.9346H16.5693L16.6738 18.9365L13.1084 15.3711C13.024 15.4263 12.9376 15.4791 12.8457 15.5234H12.8438C12.5689 15.6552 12.2875 15.7059 12.002 15.7285C11.7254 15.7504 11.3891 15.75 11 15.75C10.5858 15.75 10.25 15.4142 10.25 15C10.25 14.5858 10.5858 14.25 11 14.25C11.4129 14.25 11.6791 14.2485 11.8828 14.2324C11.9107 14.2302 11.9357 14.2243 11.959 14.2217L9.75 12.0127V13C9.75 13.7293 9.46104 14.4296 8.94531 14.9453C8.42959 15.461 7.72935 15.75 7 15.75C6.58579 15.75 6.25 15.4142 6.25 15C6.25 14.5858 6.58579 14.25 7 14.25C7.33152 14.25 7.65034 14.1192 7.88477 13.8848C8.11919 13.6503 8.25 13.3315 8.25 13V10.5127L5.06152 7.32422C5.06264 7.35806 5.06421 7.39287 5.06543 7.42871ZM11.999 1.24902C12.5033 1.24902 13.0004 1.37786 13.4404 1.62402L13.7549 1.83691C14.0662 2.08123 14.3764 2.41959 14.7686 2.83887V2.84082L15.0557 3.14355L15.2002 3.27441L15.2021 3.27637L15.3623 3.38379C15.5286 3.48009 15.7133 3.54285 15.9053 3.56738H15.9033C16.0082 3.58033 16.126 3.57812 16.5186 3.56543L17.5283 3.5459C17.823 3.55236 18.0808 3.57864 18.3174 3.64551H18.3193L18.6748 3.77246C19.0197 3.92034 19.3356 4.13245 19.6025 4.39941C19.8696 4.66658 20.0817 4.98201 20.2295 5.32715L20.3545 5.68066L20.3564 5.68262L20.4287 6.05566C20.4757 6.44734 20.4548 6.90557 20.4346 7.48145C20.422 7.87185 20.4199 7.99036 20.4326 8.09473L20.4697 8.28418C20.5193 8.46963 20.6056 8.64432 20.7236 8.79785C20.789 8.88124 20.8739 8.96505 21.1592 9.23145H21.1611L21.8877 9.93066C21.9898 10.0373 22.0816 10.1412 22.1631 10.2451L22.376 10.5596V10.5615L22.54 10.9053C22.8669 11.7251 22.8119 12.6556 22.376 13.4385V13.4404C22.1363 13.8694 21.7201 14.2457 21.1611 14.7686H21.1592C20.8672 15.0412 20.7877 15.1193 20.7256 15.2002L20.7236 15.2021C20.5659 15.4063 20.4653 15.6493 20.4326 15.9053C20.4199 16.0097 20.422 16.1284 20.4346 16.5186L20.4541 17.5283C20.4509 17.6755 20.4425 17.8135 20.4268 17.9443L20.3906 18.1279L18.9365 16.6738C18.9354 16.64 18.9358 16.6052 18.9346 16.5693V16.5674C18.9234 16.2206 18.9135 15.9662 18.9443 15.7178V15.7158L19.0205 15.3291C19.1213 14.9511 19.2972 14.5957 19.5381 14.2842C19.6936 14.0821 19.8849 13.9071 20.1357 13.6729L20.8076 13.0283C20.9471 12.8846 21.0173 12.7942 21.0654 12.708C21.3106 12.2672 21.3106 11.7328 21.0654 11.292L20.9717 11.1533C20.9305 11.102 20.8775 11.0437 20.8076 10.9717L20.1357 10.3271C19.8794 10.0878 19.6944 9.91565 19.54 9.71777L19.5361 9.71582C19.2165 9.30121 19.0114 8.80768 18.9443 8.28613V8.28223C18.9135 8.03359 18.9233 7.7788 18.9346 7.43066V7.42871L18.9561 6.49902C18.953 6.30047 18.9392 6.18669 18.9131 6.09277L18.8506 5.91699C18.7776 5.74688 18.6717 5.59164 18.54 5.45996C18.4083 5.32839 18.2531 5.22423 18.083 5.15137L17.9092 5.08887C17.7186 5.035 17.4536 5.03546 16.5693 5.06543H16.5674C16.2206 5.07665 15.9662 5.08651 15.7178 5.05566H15.7158C15.1955 4.98915 14.7013 4.78442 14.2861 4.46387L13.9912 4.2002L13.6729 3.86426C13.0684 3.21798 12.8806 3.03091 12.708 2.93457V2.93262C12.4918 2.81172 12.2468 2.74902 11.999 2.74902C11.7516 2.74919 11.5079 2.81189 11.292 2.93262V2.93457C11.2059 2.98265 11.1154 3.05285 10.9717 3.19238L10.3291 3.86426C10.088 4.12244 9.9152 4.30594 9.71777 4.45996L9.71582 4.46387C9.3012 4.78352 8.80767 4.98855 8.28613 5.05566H8.28223C8.03359 5.08653 7.7788 5.07666 7.43066 5.06543H7.42871C7.39323 5.06418 7.35872 5.06365 7.3252 5.0625L5.86914 3.60645L6.05566 3.57129C6.44733 3.52427 6.90557 3.54519 7.48145 3.56543H7.47949C7.87145 3.57807 7.99019 3.58009 8.09473 3.56738L8.28418 3.53027C8.47019 3.48057 8.64593 3.39305 8.7998 3.27441C8.883 3.20887 8.96932 3.12152 9.23145 2.84082L9.93066 2.1123C10.1437 1.90832 10.3449 1.74394 10.5596 1.62402L10.8994 1.46191C11.2479 1.32179 11.6211 1.24915 11.999 1.24902ZM15.7656 10.7012C16.7262 10.4522 17.6864 10.8693 18.2578 11.6699L18.375 11.8457L18.3809 11.8574L18.4219 11.9277L18.4414 11.9609L18.4551 11.9844L18.541 12.1387L18.5566 12.1699L18.6445 12.373C18.8151 12.8546 18.771 13.3663 18.5781 13.7852C18.3578 14.2631 17.8981 14.6963 17.252 14.7461H17.248C17.186 14.7505 17.108 14.75 17.0391 14.75H17.0127L15.502 13.2393C15.6939 13.246 15.9333 13.25 16.252 13.25H17.1367C17.1391 13.2498 17.1444 13.2494 17.1562 13.2402C17.1709 13.2287 17.1958 13.2037 17.2168 13.1582C17.2599 13.0647 17.2625 12.9466 17.2168 12.8457L17.1582 12.7383L17.1387 12.7051L17.1309 12.6914L17.082 12.6094V12.6074C16.8145 12.1735 16.4032 12.0565 16.0742 12.1719L16.0762 12.1738L15.9941 12.2031L15.7344 11.5L15.4727 10.7969L15.5547 10.7676L15.5605 10.7637L15.7656 10.7012ZM15.9941 12.2031C15.6058 12.3468 15.1751 12.1481 15.0312 11.7598C14.8878 11.3717 15.0849 10.941 15.4727 10.7969L15.9941 12.2031ZM13.582 8.25C13.9962 8.25002 14.332 8.5858 14.332 9V10.8984C14.332 11.3617 14.3328 11.6964 14.3457 11.9629L14.3584 12.0957L12.832 10.5693V9C12.832 8.58579 13.1678 8.25 13.582 8.25Z" fill="black"/>
</svg>
