<svg width="24" height="24" viewBox="0 0 24 24" fill="none" xmlns="http://www.w3.org/2000/svg">
<path d="M8.3999 10.8C8.3999 10.1635 8.65276 9.55302 9.10285 9.10293C9.55293 8.65284 10.1634 8.39999 10.7999 8.39999C11.4364 8.39999 12.0469 8.65284 12.497 9.10293C12.947 9.55302 13.1999 10.1635 13.1999 10.8C13.1999 11.4365 12.947 12.047 12.497 12.497C12.0469 12.9471 11.4364 13.2 10.7999 13.2C10.1634 13.2 9.55293 12.9471 9.10285 12.497C8.65276 12.047 8.3999 11.4365 8.3999 10.8ZM10.7999 9.59999C10.4816 9.59999 10.1764 9.72642 9.95137 9.95146C9.72633 10.1765 9.5999 10.4817 9.5999 10.8C9.5999 11.1182 9.72633 11.4235 9.95137 11.6485C10.1764 11.8736 10.4816 12 10.7999 12C11.1182 12 11.4234 11.8736 11.6484 11.6485C11.8735 11.4235 11.9999 11.1182 11.9999 10.8C11.9999 10.4817 11.8735 10.1765 11.6484 9.95146C11.4234 9.72642 11.1182 9.59999 10.7999 9.59999ZM4.1999 4.79999C3.72251 4.79999 3.26468 4.98963 2.92711 5.3272C2.58954 5.66476 2.3999 6.1226 2.3999 6.59999V15C2.3999 15.4774 2.58954 15.9352 2.92711 16.2728C3.26468 16.6103 3.72251 16.8 4.1999 16.8H17.3999C17.8773 16.8 18.3351 16.6103 18.6727 16.2728C19.0103 15.9352 19.1999 15.4774 19.1999 15V6.59999C19.1999 6.1226 19.0103 5.66476 18.6727 5.3272C18.3351 4.98963 17.8773 4.79999 17.3999 4.79999H4.1999ZM3.5999 6.59999C3.5999 6.44086 3.66312 6.28825 3.77564 6.17572C3.88816 6.0632 4.04077 5.99999 4.1999 5.99999H5.9999V7.19999C5.9999 7.51825 5.87347 7.82347 5.64843 8.04852C5.42339 8.27356 5.11816 8.39999 4.7999 8.39999H3.5999V6.59999ZM3.5999 9.59999H4.7999C5.43642 9.59999 6.04687 9.34713 6.49696 8.89704C6.94705 8.44696 7.1999 7.83651 7.1999 7.19999V5.99999H14.3999V7.19999C14.3999 7.83651 14.6528 8.44696 15.1028 8.89704C15.5529 9.34713 16.1634 9.59999 16.7999 9.59999H17.9999V12H16.7999C16.1634 12 15.5529 12.2528 15.1028 12.7029C14.6528 13.153 14.3999 13.7635 14.3999 14.4V15.6H7.1999V14.4C7.1999 13.7635 6.94705 13.153 6.49696 12.7029C6.04687 12.2528 5.43642 12 4.7999 12H3.5999V9.59999ZM15.5999 5.99999H17.3999C17.559 5.99999 17.7116 6.0632 17.8242 6.17572C17.9367 6.28825 17.9999 6.44086 17.9999 6.59999V8.39999H16.7999C16.4816 8.39999 16.1764 8.27356 15.9514 8.04852C15.7263 7.82347 15.5999 7.51825 15.5999 7.19999V5.99999ZM17.9999 13.2V15C17.9999 15.1591 17.9367 15.3117 17.8242 15.4243C17.7116 15.5368 17.559 15.6 17.3999 15.6H15.5999V14.4C15.5999 14.0817 15.7263 13.7765 15.9514 13.5515C16.1764 13.3264 16.4816 13.2 16.7999 13.2H17.9999ZM5.9999 15.6H4.1999C4.04077 15.6 3.88816 15.5368 3.77564 15.4243C3.66312 15.3117 3.5999 15.1591 3.5999 15V13.2H4.7999C5.11816 13.2 5.42339 13.3264 5.64843 13.5515C5.87347 13.7765 5.9999 14.0817 5.9999 14.4V15.6ZM20.3999 15C20.3999 15.7956 20.0838 16.5587 19.5212 17.1213C18.9586 17.6839 18.1956 18 17.3999 18H4.9019C5.02603 18.3511 5.256 18.655 5.56011 18.87C5.86423 19.0849 6.22751 19.2002 6.5999 19.2H17.3999C18.5138 19.2 19.5821 18.7575 20.3698 17.9698C21.1574 17.1822 21.5999 16.1139 21.5999 15V8.99999C21.6001 8.6276 21.4848 8.26431 21.2699 7.9602C21.0549 7.65609 20.751 7.42612 20.3999 7.30199V15Z" fill="black"/>
</svg>
