<svg width="24" height="24" viewBox="0 0 24 24" fill="none" xmlns="http://www.w3.org/2000/svg">
<path d="M17 13.2002C19.0987 13.2002 20.7998 14.9013 20.7998 17C20.7998 19.0987 19.0987 20.7998 17 20.7998C16.0095 20.7998 15.108 20.4206 14.4316 19.7998H6C5.3502 19.7998 4.72374 19.5742 4.22559 19.166L4.02051 18.9795C3.61874 18.5777 3.35046 18.0667 3.24707 17.5156L3.21289 17.2773V17.2695L3.21191 17.2617L3.2002 17.0137V17C3.2002 16.2573 3.49546 15.5456 4.02051 15.0205L4.22559 14.834C4.72374 14.4258 5.3502 14.2002 6 14.2002H14.4316C15.108 13.5794 16.0095 13.2002 17 13.2002ZM17 14.7998C15.785 14.7998 14.7998 15.785 14.7998 17C14.7998 18.215 15.785 19.2002 17 19.2002C18.215 19.2002 19.2002 18.215 19.2002 17C19.2002 15.785 18.215 14.7998 17 14.7998ZM6 15.7998C5.72141 15.7998 5.45288 15.897 5.23926 16.0723L5.15137 16.1514C4.92949 16.3732 4.80337 16.6731 4.7998 16.9863L4.82617 17.2471C4.87375 17.4731 4.98545 17.6827 5.15137 17.8486L5.23926 17.9277C5.45288 18.103 5.72141 18.2002 6 18.2002H13.3945C13.269 17.8229 13.2002 17.4195 13.2002 17C13.2002 16.5805 13.269 16.1771 13.3945 15.7998H6ZM7 3.2002C7.99045 3.2002 8.89202 3.57944 9.56836 4.2002H18C18.7427 4.2002 19.4544 4.49546 19.9795 5.02051L20.166 5.22559C20.5742 5.72374 20.7998 6.3502 20.7998 7C20.7998 7.74269 20.5045 8.45445 19.9795 8.97949C19.4544 9.50454 18.7427 9.7998 18 9.7998H9.56836C8.89202 10.4206 7.99045 10.7998 7 10.7998C4.90132 10.7998 3.2002 9.09868 3.2002 7C3.2002 4.90132 4.90132 3.2002 7 3.2002ZM7 4.7998C5.78497 4.7998 4.7998 5.78497 4.7998 7C4.7998 8.21503 5.78497 9.2002 7 9.2002C8.21503 9.2002 9.2002 8.21503 9.2002 7C9.2002 5.78497 8.21503 4.7998 7 4.7998ZM10.6055 5.7998C10.731 6.17714 10.7998 6.58049 10.7998 7C10.7998 7.41951 10.731 7.82287 10.6055 8.2002H18C18.3182 8.2002 18.6235 8.07373 18.8486 7.84863C19.0737 7.62353 19.2002 7.31818 19.2002 7C19.2002 6.72141 19.103 6.45288 18.9277 6.23926L18.8486 6.15137C18.6235 5.92627 18.3182 5.7998 18 5.7998H10.6055Z" fill="black"/>
</svg>
