<svg width="24" height="24" viewBox="0 0 24 24" fill="none" xmlns="http://www.w3.org/2000/svg">
<path d="M12.0768 11.496C12.1557 11.5083 12.2364 11.5047 12.3139 11.4854C12.3915 11.4661 12.4644 11.4316 12.5284 11.3837C12.5924 11.3359 12.6462 11.2757 12.6867 11.2068C12.7271 11.1379 12.7534 11.0616 12.764 10.9824C12.7745 10.9031 12.7691 10.8226 12.7481 10.7455C12.7271 10.6684 12.6909 10.5963 12.6417 10.5333C12.5924 10.4704 12.5311 10.4179 12.4613 10.379C12.3915 10.3401 12.3146 10.3156 12.2352 10.3068C11.1072 10.1568 10.0992 11.0136 10.0992 12.264C10.0992 12.4231 10.1624 12.5757 10.2749 12.6882C10.3874 12.8008 10.54 12.864 10.6992 12.864C10.8583 12.864 11.0109 12.8008 11.1234 12.6882C11.236 12.5757 11.2992 12.4231 11.2992 12.264C11.2992 11.7156 11.6928 11.4444 12.0768 11.496ZM12.4896 17.958C13.9202 17.958 15.2921 17.3897 16.3037 16.3781C17.3153 15.3665 17.8836 13.9945 17.8836 12.564C17.8836 11.1334 17.3153 9.76141 16.3037 8.74984C15.2921 7.73827 13.9202 7.16997 12.4896 7.16997C11.059 7.16997 9.68702 7.73827 8.67544 8.74984C7.66387 9.76141 7.09558 11.1334 7.09558 12.564C7.09558 13.9945 7.66387 15.3665 8.67544 16.3781C9.68702 17.3897 11.059 17.958 12.4896 17.958ZM12.4896 16.758C11.3773 16.758 10.3105 16.3161 9.52397 15.5296C8.73744 14.743 8.29558 13.6763 8.29558 12.564C8.29558 11.4517 8.73744 10.3849 9.52397 9.59837C10.3105 8.81184 11.3773 8.36997 12.4896 8.36997C13.6019 8.36997 14.6687 8.81184 15.4552 9.59837C16.2417 10.3849 16.6836 11.4517 16.6836 12.564C16.6836 13.6763 16.2417 14.743 15.4552 15.5296C14.6687 16.3161 13.6019 16.758 12.4896 16.758ZM13.9512 2.48997C15.2052 2.57157 16.3824 2.94477 17.2236 3.47517C19.152 4.69317 19.9836 6.03237 20.4636 6.87117C20.9304 7.68477 21.8508 9.49077 21.7188 11.46C21.6842 11.9904 21.6145 12.518 21.51 13.0392L21.462 13.296C21.3948 13.6848 21.3528 14.0832 21.4236 14.9496C21.5076 15.9708 21.3012 17.0892 20.8692 18.0816C20.4372 19.0716 19.7592 19.986 18.8556 20.55C16.9776 21.7236 14.7156 21.978 12.594 21.1296C11.6232 20.742 11.2956 20.6496 10.9284 20.628C10.67 20.6184 10.4113 20.6208 10.1532 20.6352H10.1448C9.79678 20.6496 9.35038 20.6664 8.72998 20.6664C6.00238 20.6664 4.18798 19.0344 3.26158 17.2536C1.90438 14.6424 1.94158 10.6896 4.92598 8.33397C5.83798 7.61397 6.11038 7.37397 6.41758 6.86157C6.92278 6.01917 7.40278 5.35917 7.98358 4.79037C8.56558 4.21917 9.22678 3.75957 10.0764 3.29277C11.3112 2.61357 12.6924 2.40717 13.9512 2.48877M13.8732 3.68637C12.7932 3.61437 11.6484 3.79677 10.6536 4.34397C9.86878 4.77597 9.30478 5.17437 8.82358 5.64597C8.34238 6.11877 7.92238 6.68517 7.44718 7.47717C7.01278 8.20077 6.57358 8.56077 5.66998 9.27357C3.25798 11.178 3.15478 14.4456 4.32598 16.6992C5.09998 18.1872 6.55558 19.4652 8.72998 19.4652C9.32758 19.4652 9.75718 19.4484 10.1016 19.4352H10.1244C10.4556 19.4232 10.7364 19.4112 11.004 19.4292C11.5836 19.4652 12.072 19.6272 13.0392 20.0148C14.7924 20.7156 16.6536 20.5104 18.2196 19.5312C18.8652 19.128 19.4076 18.4332 19.7688 17.6004C20.1312 16.77 20.2944 15.8508 20.2284 15.0468C20.1492 14.088 20.1924 13.5876 20.28 13.0884L20.334 12.7992C20.4024 12.4356 20.4756 12.0492 20.5212 11.3784C20.6292 9.78597 19.8696 8.24637 19.4232 7.46637C18.99 6.71277 18.2784 5.55837 16.5828 4.48917C15.9348 4.07997 14.958 3.75837 13.8732 3.68637Z" fill="black"/>
</svg>
