<svg width="24" height="24" viewBox="0 0 24 24" fill="none" xmlns="http://www.w3.org/2000/svg">
<path d="M6.0001 3.00002C6.0001 2.84089 5.93688 2.68828 5.82436 2.57576C5.71184 2.46324 5.55923 2.40002 5.4001 2.40002C5.24097 2.40002 5.08836 2.46324 4.97583 2.57576C4.86331 2.68828 4.8001 2.84089 4.8001 3.00002C4.8001 4.20242 5.6233 4.81802 6.1921 5.24402L6.2401 5.28002C6.8713 5.75282 7.2001 6.03602 7.2001 6.60002C7.2001 6.75915 7.26331 6.91177 7.37583 7.02429C7.48836 7.13681 7.64097 7.20002 7.8001 7.20002C7.95923 7.20002 8.11184 7.13681 8.22436 7.02429C8.33688 6.91177 8.4001 6.75915 8.4001 6.60002C8.4001 5.39762 7.5769 4.78202 7.0081 4.35602L6.9601 4.32002C6.3289 3.84722 6.0001 3.56402 6.0001 3.00002ZM4.7221 8.40002C4.42452 8.40002 4.13914 8.51824 3.92872 8.72865C3.71831 8.93907 3.6001 9.22445 3.6001 9.52202V14.4C3.59971 15.9853 4.12254 17.5264 5.08746 18.7842C6.05238 20.042 7.40545 20.9462 8.93673 21.3565C10.468 21.7668 12.0919 21.6602 13.5564 21.0533C15.0209 20.4464 16.2442 19.3732 17.0365 18H19.2001C20.1549 18 21.0706 17.6207 21.7457 16.9456C22.4208 16.2705 22.8001 15.3548 22.8001 14.4C22.8001 13.4452 22.4208 12.5296 21.7457 11.8544C21.0706 11.1793 20.1549 10.8 19.2001 10.8H18.0001V9.52202C18.0001 9.22445 17.8819 8.93907 17.6715 8.72865C17.4611 8.51824 17.1757 8.40002 16.8781 8.40002H4.7221ZM19.2001 16.8H17.5909C17.8625 16.0291 18.0009 15.2175 18.0001 14.4V12H19.2001C19.8366 12 20.4471 12.2529 20.8972 12.703C21.3472 13.1531 21.6001 13.7635 21.6001 14.4C21.6001 15.0365 21.3472 15.647 20.8972 16.0971C20.4471 16.5472 19.8366 16.8 19.2001 16.8ZM9.0001 2.40002C9.15923 2.40002 9.31184 2.46324 9.42436 2.57576C9.53688 2.68828 9.6001 2.84089 9.6001 3.00002C9.6001 3.56402 9.9289 3.84722 10.5601 4.32002L10.6081 4.35602C11.1769 4.78202 12.0001 5.39762 12.0001 6.60002C12.0001 6.75915 11.9369 6.91177 11.8244 7.02429C11.7118 7.13681 11.5592 7.20002 11.4001 7.20002C11.241 7.20002 11.0884 7.13681 10.9758 7.02429C10.8633 6.91177 10.8001 6.75915 10.8001 6.60002C10.8001 6.03602 10.4713 5.75282 9.8401 5.28002L9.7921 5.24402C9.2233 4.81802 8.4001 4.20242 8.4001 3.00002C8.4001 2.84089 8.46331 2.68828 8.57583 2.57576C8.68836 2.46324 8.84097 2.40002 9.0001 2.40002ZM13.2001 3.00002C13.2001 2.84089 13.1369 2.68828 13.0244 2.57576C12.9118 2.46324 12.7592 2.40002 12.6001 2.40002C12.441 2.40002 12.2884 2.46324 12.1758 2.57576C12.0633 2.68828 12.0001 2.84089 12.0001 3.00002C12.0001 4.20242 12.8233 4.81802 13.3921 5.24402L13.4401 5.28002C14.0713 5.75282 14.4001 6.03602 14.4001 6.60002C14.4001 6.75915 14.4633 6.91177 14.5758 7.02429C14.6884 7.13681 14.841 7.20002 15.0001 7.20002C15.1592 7.20002 15.3118 7.13681 15.4244 7.02429C15.5369 6.91177 15.6001 6.75915 15.6001 6.60002C15.6001 5.39762 14.7769 4.78202 14.2081 4.35602L14.1601 4.32002C13.5289 3.84722 13.2001 3.56402 13.2001 3.00002Z" fill="black"/>
</svg>
