<svg width="24" height="24" viewBox="0 0 24 24" fill="none" xmlns="http://www.w3.org/2000/svg">
<path d="M13.2001 7.20002C13.8366 7.20002 14.447 6.94717 14.8971 6.49708C15.3472 6.04699 15.6001 5.43654 15.6001 4.80002C15.6001 4.1635 15.3472 3.55306 14.8971 3.10297C14.447 2.65288 13.8366 2.40002 13.2001 2.40002C12.5636 2.40002 11.9531 2.65288 11.503 3.10297C11.0529 3.55306 10.8001 4.1635 10.8001 4.80002C10.8001 5.43654 11.0529 6.04699 11.503 6.49708C11.9531 6.94717 12.5636 7.20002 13.2001 7.20002ZM10.1797 7.42082C10.4941 7.35722 10.8001 7.50242 11.0569 7.69322C11.5163 8.03376 12.0503 8.25992 12.6146 8.35299C13.1789 8.44607 13.7572 8.40336 14.3017 8.22842C14.4997 8.16482 14.7097 8.12522 14.9101 8.17322C15.4705 8.30762 15.9805 8.61722 16.3561 9.06962L17.8681 10.8792C17.9399 10.965 18.0342 11.029 18.1405 11.064L19.3717 11.472C19.7417 11.6029 20.0456 11.8736 20.2183 12.2261C20.391 12.5785 20.4187 12.9846 20.2955 13.3572C20.1722 13.7299 19.9078 14.0393 19.559 14.2192C19.2102 14.3992 18.8047 14.4352 18.4297 14.3196L16.6297 13.7244C16.3641 13.6365 16.1284 13.476 15.9493 13.2612L15.3601 12.5556C15.2915 12.4737 15.2024 12.4115 15.1018 12.3756C15.0012 12.3396 14.8928 12.3312 14.7878 12.3511C14.6829 12.371 14.5852 12.4186 14.5047 12.489C14.4243 12.5593 14.3642 12.6499 14.3305 12.7512L14.1505 13.2876C14.1218 13.374 14.1132 13.4658 14.1252 13.556C14.1373 13.6463 14.1697 13.7326 14.2201 13.8084L15.4837 15.7212C15.7297 16.0932 15.8797 16.5204 15.9205 16.9644L16.1929 19.9644C16.2107 20.1606 16.1897 20.3584 16.131 20.5465C16.0724 20.7346 15.9773 20.9092 15.8512 21.0606C15.725 21.2119 15.5703 21.3369 15.3959 21.4284C15.2214 21.5199 15.0307 21.5762 14.8345 21.594C14.6383 21.6118 14.4405 21.5908 14.2524 21.5322C14.0643 21.4736 13.8897 21.3785 13.7383 21.2523C13.587 21.1262 13.462 20.9715 13.3705 20.797C13.279 20.6226 13.2227 20.4318 13.2049 20.2356L12.9529 17.4624C12.9441 17.3639 12.9111 17.2691 12.8569 17.1864L11.9881 15.8724C11.9286 15.7825 11.8459 15.7102 11.7489 15.6632C11.6518 15.6163 11.5438 15.5963 11.4363 15.6055C11.3289 15.6147 11.2259 15.6528 11.1382 15.7156C11.0505 15.7784 10.9814 15.8636 10.9381 15.9624L8.87407 20.6988C8.79933 20.8851 8.68798 21.0544 8.54662 21.1968C8.40526 21.3392 8.23677 21.4518 8.05111 21.528C7.86544 21.6041 7.6664 21.6422 7.46574 21.64C7.26509 21.6379 7.06691 21.5955 6.88295 21.5153C6.69898 21.4352 6.53296 21.3189 6.39472 21.1735C6.25648 21.028 6.14883 20.8563 6.07815 20.6685C6.00746 20.4807 5.97517 20.2806 5.9832 20.0801C5.99123 19.8796 6.0394 19.6828 6.12487 19.5012L9.54847 11.64C9.59306 11.5377 9.60824 11.425 9.59231 11.3146C9.57638 11.2042 9.52997 11.1004 9.45829 11.0148C9.38661 10.9293 9.2925 10.8655 9.18654 10.8305C9.08059 10.7955 8.96697 10.7908 8.85847 10.8168L8.71447 10.8516C8.66944 10.8623 8.62749 10.8832 8.59189 10.9128C8.55629 10.9423 8.52802 10.9797 8.50927 11.022L7.90567 12.3804L7.89007 12.414L7.35607 13.542C7.27168 13.7201 7.15305 13.8798 7.00694 14.012C6.86083 14.1443 6.69011 14.2464 6.50452 14.3126C6.12971 14.4464 5.7171 14.4259 5.35747 14.2554C4.99784 14.085 4.72063 13.7787 4.58685 13.4039C4.45306 13.0291 4.47364 12.6165 4.64407 12.2568L5.17207 11.1456L5.76727 9.80402C5.97317 9.33981 6.28343 8.92939 6.6739 8.60469C7.06436 8.28 7.52449 8.04981 8.01847 7.93202L10.0885 7.44002L10.1797 7.42082Z" fill="black"/>
</svg>
