<svg width="24" height="24" viewBox="0 0 24 24" fill="none" xmlns="http://www.w3.org/2000/svg">
<path d="M8.39709 11.235C8.59216 11.196 8.76375 11.0811 8.87411 10.9156C8.98448 10.7501 9.02458 10.5476 8.98559 10.3525C8.9466 10.1574 8.83172 9.98585 8.66622 9.87548C8.50072 9.76512 8.29816 9.72502 8.10309 9.764C7.20009 9.944 6.51809 10.576 6.15509 11.423C5.79509 12.261 5.74209 13.309 6.02309 14.431C6.04503 14.5285 6.08625 14.6207 6.14431 14.702C6.20237 14.7834 6.27611 14.8523 6.36119 14.9048C6.44627 14.9572 6.54098 14.9921 6.63975 15.0075C6.73852 15.0228 6.83936 15.0182 6.93634 14.994C7.03332 14.9698 7.12449 14.9265 7.20448 14.8666C7.28447 14.8067 7.35168 14.7313 7.40215 14.6451C7.45262 14.5588 7.48534 14.4633 7.49838 14.3642C7.51142 14.2651 7.50452 14.1644 7.47809 14.068C7.25809 13.19 7.33009 12.488 7.53309 12.014C7.73309 11.548 8.05109 11.305 8.39709 11.235ZM5.47109 3.419C5.42835 4.12898 5.53229 4.84015 5.77642 5.5082C6.02056 6.17625 6.39965 6.78687 6.89009 7.302C5.93745 7.57514 5.08455 8.11888 4.43488 8.86724C3.78521 9.61561 3.36668 10.5364 3.23009 11.518C2.90094 13.8732 3.38416 16.2703 4.60009 18.314L4.95009 18.904L4.99309 18.967L6.40909 20.873C6.70901 21.277 7.09337 21.6107 7.53541 21.851C7.97746 22.0913 8.46656 22.2323 8.96867 22.2643C9.47078 22.2963 9.97382 22.2184 10.4428 22.0362C10.9117 21.8539 11.3353 21.5716 11.6841 21.209C11.7249 21.1666 11.7738 21.1329 11.8279 21.1098C11.882 21.0868 11.9403 21.0749 11.9991 21.0749C12.0579 21.0749 12.1161 21.0868 12.1703 21.1098C12.2244 21.1329 12.2733 21.1666 12.3141 21.209C12.6628 21.5716 13.0864 21.8539 13.5554 22.0362C14.0244 22.2184 14.5274 22.2963 15.0295 22.2643C15.5316 22.2323 16.0207 22.0913 16.4628 21.851C16.9048 21.6107 17.2892 21.277 17.5891 20.873L19.0051 18.966L19.0471 18.903L19.3981 18.313C20.6148 16.2699 21.0991 13.8732 20.7711 11.518C20.6743 10.824 20.436 10.1573 20.0711 9.5591C19.7062 8.96091 19.2224 8.44399 18.6496 8.04034C18.0769 7.63668 17.4274 7.35489 16.7413 7.21241C16.0552 7.06993 15.3472 7.06979 14.6611 7.212L12.7601 7.606H12.7571C12.7871 6.826 12.9091 5.986 13.1481 5.268C13.4381 4.4 13.8401 3.878 14.2881 3.692C14.4718 3.61535 14.6174 3.46889 14.6931 3.28482C14.7688 3.10075 14.7682 2.89416 14.6916 2.7105C14.6149 2.52684 14.4685 2.38115 14.2844 2.30548C14.1003 2.22981 13.8938 2.23035 13.7101 2.307C12.6581 2.746 12.0601 3.787 11.7251 4.793L11.6791 4.935C11.4331 4.45899 11.115 4.02385 10.7361 3.645C10.2175 3.12574 9.59451 2.7226 8.90837 2.46228C8.22222 2.20196 7.4886 2.0904 6.75609 2.135C6.4218 2.15424 6.1062 2.29551 5.86916 2.532C5.63211 2.76849 5.49011 3.08376 5.47009 3.418M6.96309 3.625C7.4649 3.61052 7.96436 3.69886 8.43076 3.88459C8.89715 4.07033 9.32061 4.34952 9.67509 4.705C10.0306 5.05948 10.3098 5.48294 10.4955 5.94933C10.6812 6.41573 10.7696 6.91519 10.7551 7.417C10.5737 7.42099 10.3923 7.41264 10.2121 7.392L9.59509 7.264C9.00907 7.08808 8.47582 6.76957 8.04309 6.337C7.68761 5.98253 7.40841 5.55906 7.22268 5.09267C7.03695 4.62627 6.94861 4.12681 6.96309 3.625ZM9.03309 8.68L9.23509 8.722C9.47509 8.79 9.71842 8.84067 9.96509 8.874L10.9351 9.074C11.6376 9.21954 12.3625 9.21954 13.0651 9.074L14.9671 8.68C15.4522 8.57945 15.9529 8.57956 16.438 8.68033C16.9231 8.7811 17.3823 8.98038 17.7873 9.26583C18.1923 9.55127 18.5344 9.91682 18.7923 10.3398C19.0503 10.7628 19.2187 11.2343 19.2871 11.725C19.5679 13.7427 19.1528 15.7959 18.1101 17.546L17.7791 18.103L16.3861 19.979C16.2161 20.208 15.9982 20.3972 15.7476 20.5334C15.497 20.6696 15.2198 20.7495 14.9352 20.7676C14.6505 20.7856 14.3654 20.7415 14.0996 20.6381C13.8338 20.5347 13.5937 20.3746 13.3961 20.169C13.2154 19.981 12.9987 19.8314 12.7588 19.7292C12.5189 19.627 12.2608 19.5744 12.0001 19.5744C11.7393 19.5744 11.4813 19.627 11.2414 19.7292C11.0015 19.8314 10.7847 19.981 10.6041 20.169C10.4065 20.3746 10.1664 20.5347 9.90059 20.6381C9.63479 20.7415 9.34964 20.7856 9.06502 20.7676C8.78039 20.7495 8.50313 20.6696 8.25255 20.5334C8.00197 20.3972 7.78409 20.208 7.61409 19.979L6.22109 18.103L5.89009 17.546C4.84777 15.7958 4.43298 13.7426 4.71409 11.725C4.78249 11.2344 4.95086 10.763 5.20877 10.3401C5.46668 9.91718 5.80865 9.55169 6.21351 9.26625C6.61837 8.98082 7.0775 8.78151 7.56249 8.68067C8.04748 8.57983 8.54801 8.57961 9.03309 8.68Z" fill="black"/>
</svg>
