<svg width="24" height="24" viewBox="0 0 24 24" fill="none" xmlns="http://www.w3.org/2000/svg">
<path d="M12.0001 2.40002C10.0905 2.40002 8.25919 3.15859 6.90893 4.50886C5.55867 5.85912 4.8001 7.69047 4.8001 9.60002C4.8001 11.3616 5.8117 13.2084 6.9685 14.7672C8.1445 16.35 9.5509 17.7432 10.5025 18.6156C10.9097 18.9934 11.4446 19.2033 12.0001 19.2033C12.5556 19.2033 13.0905 18.9934 13.4977 18.6156C14.4493 17.7432 15.8569 16.35 17.0317 14.7672C18.1885 13.2084 19.2001 11.3616 19.2001 9.60002C19.2001 7.69047 18.4415 5.85912 17.0913 4.50886C15.741 3.15859 13.9097 2.40002 12.0001 2.40002ZM14.4001 9.60002C14.4001 10.2365 14.1472 10.847 13.6972 11.2971C13.2471 11.7472 12.6366 12 12.0001 12C11.3636 12 10.7531 11.7472 10.303 11.2971C9.85295 10.847 9.6001 10.2365 9.6001 9.60002C9.6001 8.96351 9.85295 8.35306 10.303 7.90297C10.7531 7.45288 11.3636 7.20002 12.0001 7.20002C12.6366 7.20002 13.2471 7.45288 13.6972 7.90297C14.1472 8.35306 14.4001 8.96351 14.4001 9.60002ZM17.3041 16.3656C17.026 16.7028 16.7399 17.0333 16.4461 17.3568C16.7517 17.4432 17.0365 17.5372 17.3005 17.6388C17.9653 17.8944 18.4633 18.1848 18.7837 18.4764C19.1041 18.768 19.2001 19.0128 19.2001 19.2C19.2001 19.3872 19.1041 19.632 18.7837 19.9236C18.4633 20.2152 17.9653 20.5056 17.3005 20.7612C15.9733 21.2724 14.1001 21.6012 12.0001 21.6012C9.9001 21.6012 8.0269 21.2724 6.6997 20.7612C6.0349 20.5056 5.5369 20.2152 5.2165 19.9236C4.8961 19.632 4.8001 19.3872 4.8001 19.2C4.8001 19.0128 4.8961 18.768 5.2165 18.4764C5.5369 18.1848 6.0349 17.8944 6.6997 17.6388C6.97993 17.5315 7.26505 17.4374 7.5541 17.3568C7.25994 17.0336 6.97385 16.7031 6.6961 16.3656C6.55264 16.4138 6.41021 16.465 6.2689 16.5192C5.5237 16.806 4.8781 17.1624 4.4089 17.5884C3.9409 18.0144 3.6001 18.5592 3.6001 19.2C3.6001 19.842 3.9409 20.3856 4.4089 20.8116C4.8769 21.2376 5.5237 21.594 6.2689 21.882C7.7653 22.458 9.7921 22.8 12.0001 22.8C14.2081 22.8 16.2349 22.4568 17.7313 21.882C18.4765 21.594 19.1221 21.2376 19.5913 20.8116C20.0593 20.3856 20.4001 19.842 20.4001 19.2C20.4001 18.558 20.0593 18.0144 19.5913 17.5884C19.1233 17.1624 18.4765 16.806 17.7313 16.5192C17.59 16.465 17.4476 16.4138 17.3041 16.3656Z" fill="black"/>
</svg>
