<svg width="24" height="24" viewBox="0 0 24 24" fill="none" xmlns="http://www.w3.org/2000/svg">
<path d="M4.80005 4.80002C4.80005 4.1635 5.05291 3.55306 5.50299 3.10297C5.95308 2.65288 6.56353 2.40002 7.20005 2.40002H16.8C17.4366 2.40002 18.047 2.65288 18.4971 3.10297C18.9472 3.55306 19.2 4.1635 19.2 4.80002V18C19.2 18.3183 19.0736 18.6235 18.8486 18.8486C18.6235 19.0736 18.3183 19.2 18 19.2H6.00005C6.00005 19.5183 6.12648 19.8235 6.35152 20.0486C6.57656 20.2736 6.88179 20.4 7.20005 20.4H18.6C18.7592 20.4 18.9118 20.4632 19.0243 20.5758C19.1368 20.6883 19.2 20.8409 19.2 21C19.2 21.1592 19.1368 21.3118 19.0243 21.4243C18.9118 21.5368 18.7592 21.6 18.6 21.6H7.20005C6.56353 21.6 5.95308 21.3472 5.50299 20.8971C5.05291 20.447 4.80005 19.8365 4.80005 19.2V4.80002ZM12 6.00002C11.094 6.00002 10.2336 6.19562 9.57725 6.57602C8.92085 6.95762 8.40005 7.57562 8.40005 8.40002C8.40005 9.22442 8.92085 9.84243 9.57725 10.224C10.2336 10.6044 11.094 10.8 12 10.8C12.906 10.8 13.7664 10.6044 14.4228 10.224C15.0792 9.84243 15.6 9.22442 15.6 8.40002C15.6 7.57562 15.0792 6.95762 14.4228 6.57602C13.7664 6.19562 12.906 6.00002 12 6.00002ZM8.43725 10.8384C8.41285 10.9235 8.40033 11.0115 8.40005 11.1C8.40005 11.46 8.61845 11.76 8.79605 11.952C8.99765 12.1704 9.26765 12.378 9.57965 12.558C10.3176 12.9772 11.1514 13.1984 12 13.2C12.9456 13.2 13.7976 12.9168 14.4204 12.558C14.7324 12.378 15.0024 12.1704 15.2052 11.9532C15.3816 11.7612 15.6 11.4612 15.6 11.1C15.5998 11.0115 15.5872 10.9235 15.5628 10.8384C15.3884 10.9704 15.2072 11.0904 15.0192 11.1984C14.0991 11.7223 13.0588 11.9985 12 12C10.9411 11.9981 9.90085 11.7215 8.98085 11.1972C8.79173 11.0901 8.61012 10.9702 8.43725 10.8384ZM8.43725 13.2384C8.41285 13.3235 8.40033 13.4115 8.40005 13.5C8.40005 13.86 8.61845 14.16 8.79605 14.352C9.02587 14.5916 9.28994 14.7958 9.57965 14.958C10.3176 15.3772 11.1514 15.5984 12 15.6C12.9456 15.6 13.7976 15.3168 14.4204 14.958C14.7324 14.778 15.0024 14.5704 15.2052 14.3532C15.3816 14.1612 15.6 13.8612 15.6 13.5C15.5998 13.4115 15.5872 13.3235 15.5628 13.2384C15.39 13.3706 15.2084 13.4909 15.0192 13.5984C14.0991 14.1223 13.0588 14.3985 12 14.4C10.9411 14.3981 9.90085 14.1215 8.98085 13.5972C8.79173 13.4901 8.61012 13.3702 8.43725 13.2384Z" fill="black"/>
</svg>
