<svg width="24" height="24" viewBox="0 0 24 24" fill="none" xmlns="http://www.w3.org/2000/svg">
<path d="M20.673 2.16988C20.9853 1.94265 21.4248 1.96969 21.7072 2.25094C21.867 2.41019 21.9435 2.62007 21.9406 2.82907C21.9425 2.88159 21.9415 2.93466 21.9328 2.98727L21.9064 3.09567L16.1926 21.3819C16.0907 21.7078 15.7926 21.9327 15.4514 21.9424C15.1099 21.952 14.7999 21.7437 14.6799 21.4239L11.3703 12.5986L3.68477 9.30664C3.3798 9.17575 3.18769 8.8697 3.20137 8.53808C3.21533 8.20639 3.43229 7.91748 3.74727 7.81249L20.673 2.16988ZM12.9289 12.1973L15.3596 18.6807L19.4221 5.67869L12.9289 12.1973ZM6.2502 8.66405L11.8166 11.0488L18.1369 4.70115L6.2502 8.66405Z" fill="black"/>
</svg>
