<svg width="24" height="24" viewBox="0 0 24 24" fill="none" xmlns="http://www.w3.org/2000/svg">
<path d="M13.0719 5.20044C17.0674 5.20068 20.3004 8.45404 20.3004 12.4592V14.5413C20.3003 16.167 19.7668 17.6685 18.8668 18.8792L21.1373 21.1487L21.192 21.2102C21.4479 21.5245 21.4301 21.9878 21.1373 22.2806C20.8445 22.5731 20.3811 22.5912 20.067 22.3352L20.0055 22.2806L17.775 20.0491C16.5111 21.1386 14.8697 21.8 13.0719 21.8001H10.9293C9.13096 21.8001 7.48828 21.139 6.2242 20.0491L3.9947 22.2806L3.93318 22.3352C3.61906 22.5911 3.15566 22.5731 2.86286 22.2806C2.5701 21.9878 2.55226 21.5245 2.80818 21.2102L2.86286 21.1487L5.1324 18.8792C4.23258 17.6686 3.70081 16.1668 3.70076 14.5413V12.4592C3.70076 8.57892 6.73467 5.40365 10.5572 5.20923L10.9293 5.20044H13.0719ZM12.0006 8.77173C11.5588 8.77173 11.2008 9.12977 11.2008 9.57154V14.1428C11.2009 14.5846 11.5588 14.9426 12.0006 14.9426H16.0006C16.4421 14.9424 16.8002 14.5844 16.8004 14.1428C16.8002 13.7013 16.4421 13.3433 16.0006 13.343H12.8004V9.57154C12.8003 9.12992 12.4422 8.77198 12.0006 8.77173ZM3.49665 3.37817C4.7738 2.34402 6.46467 2.43216 7.70955 3.2434L7.95174 3.41528C8.30212 3.68412 8.36886 4.18679 8.10018 4.53735C7.84831 4.86569 7.3914 4.94402 7.04646 4.73169L6.9781 4.68481C6.20516 4.09266 5.1989 4.05925 4.50349 4.62231L4.36189 4.74633C3.68333 5.38971 3.47695 6.33913 3.79548 7.07642C3.97054 7.48184 3.7838 7.95284 3.37849 8.12818C2.97315 8.30341 2.50227 8.11727 2.32673 7.71216C1.71007 6.28568 2.15195 4.63664 3.26521 3.58129L3.49665 3.37817ZM16.3805 3.18774C17.5325 2.47954 19.04 2.37982 20.2496 3.19067L20.5035 3.37817C21.7841 4.41536 22.3311 6.18903 21.6744 7.71021C21.4993 8.11563 21.0282 8.30204 20.6227 8.1272C20.2175 7.95196 20.0309 7.48179 20.2057 7.07642C20.5451 6.29015 20.287 5.26249 19.4967 4.62231L19.3658 4.52563C18.7405 4.10628 17.9149 4.12199 17.2232 4.54809L17.0768 4.64575L17.0084 4.68969C16.6575 4.89291 16.2023 4.80154 15.9596 4.46606C15.7169 4.13031 15.7727 3.66914 16.0758 3.39965L16.1392 3.34887L16.3805 3.18774Z" fill="black"/>
</svg>
