<svg width="24" height="24" viewBox="0 0 24 24" fill="none" xmlns="http://www.w3.org/2000/svg">
<path d="M8.25 9C8.05109 9 7.86032 9.07902 7.71967 9.21967C7.57902 9.36032 7.5 9.55109 7.5 9.75V14.25C7.5 14.664 7.836 15 8.25 15H12.75C12.9489 15 13.1397 14.921 13.2803 14.7803C13.421 14.6397 13.5 14.4489 13.5 14.25V9.75C13.5 9.55109 13.421 9.36032 13.2803 9.21967C13.1397 9.07902 12.9489 9 12.75 9H8.25ZM9 13.5V10.5H12V13.5H9ZM2 7.75C2 6.49022 2.50045 5.28204 3.39124 4.39124C4.28204 3.50045 5.49022 3 6.75 3H17.25C18.172 3.00005 19.0741 3.26845 19.8462 3.77244C20.6182 4.27644 21.227 4.99424 21.598 5.83829C21.9691 6.68234 22.0865 7.61614 21.9359 8.52578C21.7854 9.43541 21.3733 10.2816 20.75 10.961V18.75C20.75 19.3467 20.5129 19.919 20.091 20.341C19.669 20.7629 19.0967 21 18.5 21H5.5C4.90326 21 4.33097 20.7629 3.90901 20.341C3.48705 19.919 3.25 19.3467 3.25 18.75V10.961C2.44528 10.0854 1.9991 8.93924 2 7.75ZM6.75 4.5C6.09969 4.5001 5.46436 4.69528 4.92617 5.06032C4.38798 5.42535 3.97167 5.94345 3.73108 6.54762C3.49049 7.15179 3.43668 7.81424 3.57661 8.44932C3.71654 9.0844 4.04378 9.66289 4.516 10.11C4.59001 10.1802 4.64893 10.2647 4.68916 10.3584C4.7294 10.4521 4.7501 10.553 4.75 10.655V18.75C4.75 19.164 5.086 19.5 5.5 19.5H15.5C15.6989 19.5 15.8897 19.421 16.0303 19.2803C16.171 19.1397 16.25 18.9489 16.25 18.75V11.058C16.25 10.9357 16.2799 10.8154 16.3371 10.7073C16.3942 10.5992 16.4769 10.5068 16.578 10.438C17.153 10.0473 17.5875 9.48246 17.8177 8.82655C18.048 8.17063 18.0619 7.45817 17.8574 6.79378C17.6528 6.12939 17.2407 5.54809 16.6814 5.13524C16.1221 4.72238 15.4452 4.49974 14.75 4.5H6.75Z" fill="black"/>
</svg>
