<svg width="24" height="24" viewBox="0 0 24 24" fill="none" xmlns="http://www.w3.org/2000/svg">
<path d="M19.4724 2.22231C19.7846 1.99508 20.2241 2.02212 20.5065 2.30337C20.6663 2.46262 20.7429 2.6725 20.7399 2.8815C20.7418 2.93402 20.7408 2.98709 20.7321 3.0397L20.7058 3.1481L14.9919 21.4343C14.89 21.7602 14.5919 21.9851 14.2507 21.9949C13.9092 22.0044 13.5992 21.7961 13.4792 21.4763L10.1696 12.6511L2.48408 9.35907C2.17911 9.22818 1.98701 8.92213 2.00069 8.59051C2.01464 8.25882 2.23161 7.96991 2.54658 7.86492L19.4724 2.22231ZM11.7282 12.2497L14.1589 18.7331L18.2214 5.73112L11.7282 12.2497ZM5.04951 8.71648L10.6159 11.1013L16.9362 4.75357L5.04951 8.71648Z" fill="black"/>
</svg>
