<svg width="24" height="24" viewBox="0 0 24 24" fill="none" xmlns="http://www.w3.org/2000/svg">
<path d="M12.8581 14.273L20.2921 21.707C20.4807 21.8892 20.7333 21.99 20.9955 21.9877C21.2577 21.9854 21.5085 21.8802 21.6939 21.6948C21.8793 21.5094 21.9845 21.2586 21.9868 20.9964C21.989 20.7342 21.8882 20.4816 21.7061 20.293L3.70708 2.29302C3.61483 2.19751 3.50449 2.12133 3.38249 2.06892C3.26048 2.01651 3.12926 1.98892 2.99648 1.98777C2.8637 1.98662 2.73202 2.01192 2.60913 2.0622C2.48623 2.11248 2.37458 2.18673 2.28069 2.28063C2.18679 2.37452 2.11254 2.48617 2.06226 2.60907C2.01198 2.73196 1.98668 2.86364 1.98783 2.99642C1.98898 3.1292 2.01657 3.26042 2.06898 3.38242C2.12139 3.50443 2.19757 3.61477 2.29308 3.70702L5.39008 6.80402C4.74708 7.23302 4.13608 7.73102 3.56908 8.29902C3.05718 8.81807 2.59204 9.38125 2.17908 9.98202C2.10423 10.09 2.05137 10.2116 2.02352 10.34C1.99568 10.4683 1.99339 10.601 2.01679 10.7302C2.06405 10.9913 2.21307 11.2228 2.43108 11.374C2.53903 11.4489 2.66066 11.5017 2.78904 11.5296C2.91741 11.5574 3.05001 11.5597 3.17927 11.5363C3.44032 11.4891 3.67191 11.34 3.82308 11.122C4.18608 10.598 4.58408 10.112 4.98308 9.71202C5.5416 9.15382 6.16427 8.66374 6.83808 8.25202L7.99008 9.40502C6.61649 10.1949 5.50331 11.3686 4.78708 12.782C4.67419 13.0178 4.6581 13.2884 4.74227 13.5359C4.82644 13.7834 5.00417 13.9881 5.2374 14.1061C5.47064 14.2242 5.74082 14.2462 5.9901 14.1675C6.23938 14.0888 6.44793 13.9156 6.57108 13.685C6.86339 13.1072 7.24585 12.5796 7.70408 12.122C8.21607 11.6088 8.81544 11.1909 9.47408 10.888L10.8811 12.295C9.91642 12.5119 9.03359 12.9993 8.33608 13.7C7.87637 14.1655 7.50681 14.712 7.24608 15.312C7.14344 15.5543 7.14045 15.8273 7.23774 16.0718C7.33504 16.3163 7.52479 16.5126 7.76585 16.6181C8.00691 16.7237 8.27984 16.7299 8.52549 16.6356C8.77113 16.5412 8.96968 16.3538 9.07808 16.114C9.24508 15.733 9.47208 15.392 9.75008 15.114C10.1493 14.7143 10.6464 14.4262 11.1918 14.2786C11.7372 14.1311 12.3117 14.1291 12.8581 14.273ZM11.5261 8.34302L13.7541 10.572C14.7429 10.8596 15.6429 11.3928 16.3701 12.122C16.8276 12.5882 17.211 13.1218 17.5071 13.704C17.5653 13.8237 17.6467 13.9305 17.7467 14.0183C17.8467 14.1061 17.9632 14.173 18.0894 14.2152C18.2156 14.2574 18.3489 14.2739 18.4816 14.2639C18.6142 14.2539 18.7436 14.2176 18.862 14.1569C18.9804 14.0963 19.0856 14.0127 19.1713 13.9109C19.257 13.8092 19.3215 13.6913 19.3611 13.5643C19.4007 13.4373 19.4146 13.3036 19.4018 13.1712C19.3891 13.0388 19.3501 12.9102 19.2871 12.793C18.896 12.025 18.3891 11.3218 17.7841 10.708C16.9696 9.89086 15.9899 9.25713 14.9106 8.84926C13.8314 8.44139 12.6774 8.26879 11.5261 8.34302ZM8.51008 5.32702L10.1611 6.97802C12.0531 6.62049 14.0083 6.82246 15.7873 7.5592C17.5663 8.29595 19.0918 9.53548 20.1771 11.126C20.2513 11.2351 20.3463 11.3284 20.4567 11.4006C20.5671 11.4728 20.6906 11.5224 20.8203 11.5466C20.9499 11.5709 21.0831 11.5692 21.2121 11.5418C21.3411 11.5143 21.4634 11.4616 21.572 11.3867C21.6805 11.3118 21.7732 11.2161 21.8446 11.1052C21.9161 10.9943 21.9649 10.8704 21.9882 10.7406C22.0115 10.6108 22.009 10.4776 21.9806 10.3488C21.9523 10.22 21.8987 10.0981 21.8231 9.99002C20.3901 7.89601 18.3259 6.31436 15.9312 5.47559C13.5365 4.63682 10.9364 4.58477 8.51008 5.32702ZM13.0621 16.441C13.2015 16.5804 13.3121 16.7459 13.3875 16.928C13.4629 17.1102 13.5018 17.3054 13.5018 17.5025C13.5018 17.6997 13.4629 17.8949 13.3875 18.077C13.3121 18.2591 13.2015 18.4246 13.0621 18.564C12.9227 18.7034 12.7572 18.814 12.5751 18.8894C12.3929 18.9649 12.1977 19.0037 12.0006 19.0037C11.8034 19.0037 11.6082 18.9649 11.4261 18.8894C11.244 18.814 11.0785 18.7034 10.9391 18.564C10.6576 18.2825 10.4994 17.9007 10.4994 17.5025C10.4994 17.1044 10.6576 16.7225 10.9391 16.441C11.2206 16.1595 11.6024 16.0013 12.0006 16.0013C12.3987 16.0013 12.7806 16.1595 13.0621 16.441Z" fill="black"/>
</svg>
