<svg width="24" height="24" viewBox="0 0 24 24" fill="none" xmlns="http://www.w3.org/2000/svg">
<path d="M9.00009 10.99C9.26531 10.99 9.51966 10.8847 9.7072 10.6971C9.89474 10.5096 10.0001 10.2552 10.0001 9.99003C10.0001 9.72481 9.89474 9.47046 9.7072 9.28292C9.51966 9.09539 9.26531 8.99003 9.00009 8.99003C8.73488 8.99003 8.48052 9.09539 8.29299 9.28292C8.10545 9.47046 8.00009 9.72481 8.00009 9.99003C8.00009 10.2552 8.10545 10.5096 8.29299 10.6971C8.48052 10.8847 8.73488 10.99 9.00009 10.99ZM14.0001 12.988C14.0001 13.2532 13.8947 13.5076 13.7072 13.6951C13.5197 13.8827 13.2653 13.988 13.0001 13.988C12.7349 13.988 12.4805 13.8827 12.293 13.6951C12.1055 13.5076 12.0001 13.2532 12.0001 12.988C12.0001 12.7228 12.1055 12.4685 12.293 12.2809C12.4805 12.0934 12.7349 11.988 13.0001 11.988C13.2653 11.988 13.5197 12.0934 13.7072 12.2809C13.8947 12.4685 14.0001 12.7228 14.0001 12.988ZM9.00009 16.986C9.26531 16.986 9.51966 16.8807 9.7072 16.6931C9.89474 16.5056 10.0001 16.2512 10.0001 15.986C10.0001 15.7208 9.89474 15.4665 9.7072 15.2789C9.51966 15.0914 9.26531 14.986 9.00009 14.986C8.73488 14.986 8.48052 15.0914 8.29299 15.2789C8.10545 15.4665 8.00009 15.7208 8.00009 15.986C8.00009 16.2512 8.10545 16.5056 8.29299 16.6931C8.48052 16.8807 8.73488 16.986 9.00009 16.986ZM5.00009 4.66003C5.00009 3.16303 6.23009 1.85503 7.82009 2.01203C12.9975 2.525 17.7942 4.96151 21.2621 8.84003C22.3321 10.033 21.9991 11.804 20.7831 12.685C19.2011 13.833 16.8431 15.542 15.5001 16.518C15.4981 16.955 15.4981 17.239 15.4991 17.61V18.238C15.4992 18.4938 15.4433 18.7466 15.3352 18.9784C15.2271 19.2103 15.0695 19.4156 14.8735 19.5799C14.6775 19.7443 14.4478 19.8637 14.2007 19.9297C13.9536 19.9957 13.695 20.0068 13.4431 19.962C13.2391 20.788 12.5111 21.489 11.4991 21.489C10.7991 21.489 10.2371 21.154 9.89009 20.674L8.56509 21.631C7.07709 22.705 4.99509 21.642 4.99609 19.805L5.00009 4.66003ZM7.67309 3.50503C7.06409 3.44503 6.49909 3.94803 6.49909 4.66003V5.18003C9.00935 5.28562 11.4677 5.92896 13.7079 7.06656C15.948 8.20416 17.9178 9.8095 19.4841 11.774L19.9031 11.47C20.4811 11.05 20.5551 10.297 20.1451 9.84003C16.9271 6.2422 12.4766 3.98234 7.67309 3.50703M6.49609 19.807C6.49598 19.9453 6.5341 20.0809 6.60623 20.1989C6.67837 20.3169 6.78172 20.4126 6.90486 20.4755C7.028 20.5385 7.16614 20.5661 7.30401 20.5554C7.44188 20.5447 7.57411 20.4962 7.68609 20.415L9.81409 18.882C9.92608 18.8015 10.0581 18.7533 10.1957 18.743C10.3332 18.7326 10.471 18.7604 10.5938 18.8232C10.7166 18.886 10.8197 18.9815 10.8917 19.0992C10.9638 19.2168 11.0019 19.3521 11.0021 19.49C11.0021 19.76 11.2111 19.99 11.4991 19.99C11.565 19.9907 11.6304 19.9782 11.6915 19.9534C11.7526 19.9285 11.8081 19.8917 11.8548 19.8452C11.9016 19.7987 11.9385 19.7433 11.9637 19.6823C11.9888 19.6213 12.0015 19.556 12.0011 19.49V18.239C12.0011 18.0401 12.0801 17.8494 12.2208 17.7087C12.3614 17.568 12.5522 17.489 12.7511 17.489C12.95 17.489 13.1408 17.568 13.2814 17.7087C13.4221 17.8494 13.5011 18.0401 13.5011 18.239C13.5011 18.379 13.6121 18.489 13.7491 18.489C13.8154 18.489 13.879 18.4627 13.9259 18.4158C13.9728 18.3689 13.9991 18.3053 13.9991 18.239V17.617C13.9981 17.147 13.9971 16.809 14.0041 16.128C14.005 16.0109 14.0334 15.8956 14.0868 15.7915C14.1403 15.6873 14.2175 15.597 14.3121 15.528C15.2141 14.872 16.8081 13.716 18.2681 12.658C16.8423 10.8843 15.0554 9.43425 13.0261 8.40424C10.9967 7.37424 8.77148 6.78785 6.49809 6.68403L6.49609 19.807Z" fill="black"/>
</svg>
