<svg width="24" height="24" viewBox="0 0 24 24" fill="none" xmlns="http://www.w3.org/2000/svg">
<path d="M10.3569 4.10297C9.35589 5.10397 8.77689 6.43797 8.44489 7.77597C8.11189 9.11997 8.01389 10.523 8.01489 11.726C8.01386 11.8111 7.97963 11.8925 7.9195 11.9529C7.85936 12.0132 7.77806 12.0477 7.69289 12.049C5.92189 12.056 3.67689 12.269 1.86089 13.136C1.17889 13.462 0.89389 14.134 1.03489 14.771C1.16789 15.367 1.64989 15.856 2.30189 16.015C3.09689 16.209 4.01889 16.46 4.82089 16.745C5.22189 16.887 5.58089 17.033 5.87289 17.179C6.17489 17.331 6.35989 17.459 6.45089 17.551C6.54189 17.641 6.67089 17.826 6.82189 18.128C6.96789 18.42 7.11389 18.778 7.25589 19.179C7.53989 19.98 7.78989 20.902 7.98389 21.696C8.14289 22.348 8.63189 22.831 9.22889 22.963C9.86589 23.105 10.5379 22.82 10.8639 22.138C11.7309 20.325 11.9439 18.084 11.9539 16.315C11.9539 16.141 12.1009 15.994 12.2769 15.994C13.4789 15.994 14.8829 15.896 16.2269 15.563C17.5669 15.23 18.9009 14.651 19.9029 13.649C21.0229 12.529 21.5709 11.04 21.8199 9.59297C22.0699 8.14197 22.0289 6.66697 21.9149 5.50097C21.8344 4.62372 21.4493 3.80234 20.8264 3.17943C20.2035 2.55652 19.3821 2.17141 18.5049 2.09097C17.3389 1.97797 15.8649 1.93697 14.4129 2.18597C12.9659 2.43597 11.4769 2.98397 10.3569 4.10297ZM15.9999 4.99997C16.2651 4.99997 16.5195 5.10533 16.707 5.29286C16.8945 5.4804 16.9999 5.73475 16.9999 5.99997C16.9999 6.26519 16.8945 6.51954 16.707 6.70708C16.5195 6.89461 16.2651 6.99997 15.9999 6.99997C15.7347 6.99997 15.4803 6.89461 15.2928 6.70708C15.1052 6.51954 14.9999 6.26519 14.9999 5.99997C14.9999 5.73475 15.1052 5.4804 15.2928 5.29286C15.4803 5.10533 15.7347 4.99997 15.9999 4.99997Z" fill="black"/>
</svg>
