<svg width="24" height="24" viewBox="0 0 24 24" fill="none" xmlns="http://www.w3.org/2000/svg">
<path d="M17.7841 10.708C18.3894 11.3217 18.8967 12.0249 19.2881 12.793C19.3995 13.028 19.4151 13.2971 19.3314 13.5434C19.2477 13.7897 19.0714 13.9936 18.8398 14.112C18.6082 14.2304 18.3396 14.2539 18.091 14.1776C17.8423 14.1012 17.6332 13.931 17.5081 13.703C17.2115 13.1213 16.8278 12.5885 16.3701 12.123C15.6855 11.4382 14.8484 10.9253 13.9274 10.6265C13.0064 10.3276 12.0277 10.2513 11.0715 10.4037C10.1153 10.5561 9.20886 10.9329 8.42641 11.5033C7.64395 12.0736 7.00779 12.8213 6.57005 13.685C6.4469 13.9156 6.23835 14.0887 5.98907 14.1674C5.73979 14.2462 5.46961 14.2241 5.23638 14.1061C5.00314 13.988 4.82541 13.7833 4.74124 13.5358C4.65707 13.2883 4.67316 13.0177 4.78605 12.782C5.36646 11.6363 6.21008 10.6445 7.24777 9.88787C8.28546 9.1312 9.48769 8.63119 10.7559 8.42883C12.0241 8.22647 13.3223 8.32751 14.5439 8.72367C15.7656 9.11984 16.8759 9.79985 17.7841 10.708ZM15.7351 13.7C16.1951 14.16 16.5731 14.724 16.8371 15.324C16.9435 15.5669 16.9492 15.8422 16.8527 16.0893C16.7562 16.3364 16.5655 16.535 16.3226 16.6415C16.0796 16.748 15.8043 16.7536 15.5572 16.6571C15.3102 16.5606 15.1115 16.3699 15.0051 16.127C14.8401 15.7508 14.6084 15.4075 14.3211 15.114C13.7148 14.5077 12.8925 14.1671 12.0351 14.1671C11.1776 14.1671 10.3554 14.5077 9.74905 15.114C9.46558 15.4032 9.23779 15.7422 9.07705 16.114C9.02544 16.2358 8.95015 16.3462 8.85556 16.4387C8.76097 16.5313 8.64895 16.6041 8.526 16.6531C8.40305 16.702 8.27162 16.726 8.13931 16.7238C8.007 16.7215 7.87645 16.6931 7.75523 16.64C7.63401 16.5869 7.52452 16.5103 7.43312 16.4146C7.34172 16.3189 7.27022 16.2061 7.22277 16.0825C7.17531 15.959 7.15285 15.8273 7.15667 15.695C7.1605 15.5627 7.19054 15.4325 7.24505 15.312C7.50578 14.712 7.87534 14.1654 8.33505 13.7C9.31641 12.7188 10.6473 12.1676 12.0351 12.1676C13.4228 12.1676 14.7537 12.7188 15.7351 13.7ZM20.4191 8.29897C20.9271 8.80697 21.4061 9.38597 21.8231 9.98997C21.9715 10.2083 22.0276 10.4765 21.9791 10.736C21.9306 10.9956 21.7815 11.2254 21.5642 11.3753C21.3469 11.5253 21.0791 11.5833 20.8192 11.5366C20.5594 11.4898 20.3285 11.3422 20.1771 11.126C19.8271 10.62 19.4261 10.133 19.0051 9.71297C15.1331 5.84097 8.85505 5.84097 4.98205 9.71297C4.58305 10.112 4.18505 10.599 3.82205 11.123C3.67088 11.341 3.43929 11.49 3.17824 11.5373C2.91719 11.5845 2.64806 11.5261 2.43005 11.375C2.21204 11.2238 2.06302 10.9922 2.01576 10.7312C1.9685 10.4701 2.02688 10.201 2.17805 9.98297C2.60605 9.36497 3.07905 8.78797 3.56805 8.29897C8.22105 3.64497 15.7661 3.64497 20.4191 8.29897ZM13.0621 16.441C13.2015 16.5804 13.312 16.7459 13.3875 16.928C13.4629 17.1101 13.5017 17.3053 13.5017 17.5025C13.5017 17.6996 13.4629 17.8948 13.3875 18.077C13.312 18.2591 13.2015 18.4246 13.0621 18.564C12.9227 18.7034 12.7572 18.8139 12.575 18.8894C12.3929 18.9648 12.1977 19.0037 12.0006 19.0037C11.8034 19.0037 11.6082 18.9648 11.4261 18.8894C11.2439 18.8139 11.0785 18.7034 10.9391 18.564C10.6575 18.2824 10.4994 17.9006 10.4994 17.5025C10.4994 17.1043 10.6575 16.7225 10.9391 16.441C11.2206 16.1594 11.6024 16.0013 12.0006 16.0013C12.3987 16.0013 12.7805 16.1594 13.0621 16.441Z" fill="black"/>
</svg>
