<svg width="24" height="24" viewBox="0 0 24 24" fill="none" xmlns="http://www.w3.org/2000/svg">
<path d="M12.332 2.2002C12.6679 2.2002 12.9825 2.29362 13.2656 2.45508C13.6007 2.64623 13.8414 2.93239 13.9882 3.27539L20.8134 18.6504L20.829 18.6875C20.96 19.0279 21.0045 19.394 20.9267 19.7646C20.8557 20.1022 20.7002 20.4117 20.4491 20.6641C20.2025 20.9119 19.8998 21.0714 19.5644 21.1445C19.1928 21.2255 18.8274 21.1761 18.4911 21.0449L18.4794 21.041L18.4687 21.0361L12.332 18.4189L6.19621 21.0361L6.18254 21.042L6.16887 21.0469C5.8345 21.1754 5.47125 21.2244 5.10149 21.1445C4.76523 21.0719 4.46311 20.9123 4.21672 20.666C3.96354 20.4128 3.80587 20.101 3.73625 19.7598C3.66137 19.3926 3.70641 19.0303 3.83391 18.6924L3.84172 18.6709L3.85051 18.6504L10.6757 3.27539C10.8225 2.93242 11.0633 2.64626 11.3984 2.45508C11.6814 2.29365 11.9961 2.20023 12.332 2.2002ZM12.332 3.7998C12.3025 3.79983 12.2588 3.80626 12.1913 3.84473C12.1814 3.8504 12.1659 3.85816 12.1454 3.90723L12.1425 3.91602L5.33 19.2617C5.29512 19.3559 5.29732 19.4095 5.30364 19.4404C5.31531 19.4974 5.33283 19.5194 5.34758 19.5342C5.36914 19.5557 5.39311 19.5711 5.43938 19.5811C5.45227 19.5838 5.49537 19.5898 5.59075 19.5537L12.332 16.6807L19.0732 19.5547L19.1786 19.583C19.2027 19.5854 19.2167 19.5826 19.2236 19.5811C19.2734 19.5702 19.2967 19.5549 19.3154 19.5361C19.3295 19.5219 19.3482 19.4978 19.3613 19.4355C19.367 19.4079 19.3701 19.3612 19.3407 19.2783L12.5185 3.90723C12.498 3.85822 12.4825 3.8504 12.4726 3.84473C12.4051 3.80631 12.3614 3.7998 12.332 3.7998Z" fill="black"/>
</svg>
