<svg width="24" height="24" viewBox="0 0 24 24" fill="none" xmlns="http://www.w3.org/2000/svg">
<path d="M3.71429 2C3.90373 2 4.08541 2.07021 4.21937 2.19519C4.35332 2.32017 4.42857 2.48968 4.42857 2.66643C4.42857 3.29288 4.82 3.60743 5.57143 4.13258L5.62857 4.17256C6.30572 4.64573 7.28572 5.32949 7.28572 6.66501C7.28572 6.84176 7.21046 7.01127 7.07651 7.13625C6.94255 7.26123 6.76087 7.33144 6.57143 7.33144C6.38199 7.33144 6.20031 7.26123 6.06636 7.13625C5.9324 7.01127 5.85715 6.84176 5.85715 6.66501C5.85715 6.03857 5.46572 5.72401 4.71429 5.19887L4.65715 5.15888C3.98 4.68571 3 4.00196 3 2.66643C3 2.48968 3.07526 2.32017 3.20921 2.19519C3.34317 2.07021 3.52485 2 3.71429 2ZM8 2C8.18944 2 8.37112 2.07021 8.50508 2.19519C8.63903 2.32017 8.71429 2.48968 8.71429 2.66643C8.71429 3.29288 9.10572 3.60743 9.85714 4.13258L9.91429 4.17256C10.5914 4.64573 11.5714 5.32949 11.5714 6.66501C11.5714 6.84176 11.4962 7.01127 11.3622 7.13625C11.2283 7.26123 11.0466 7.33144 10.8571 7.33144C10.6677 7.33144 10.486 7.26123 10.3521 7.13625C10.2181 7.01127 10.1429 6.84176 10.1429 6.66501C10.1429 6.03857 9.75143 5.72401 9 5.19887L8.94286 5.15888C8.26572 4.68571 7.28572 4.00196 7.28572 2.66643C7.28572 2.48968 7.36097 2.32017 7.49493 2.19519C7.62888 2.07021 7.81056 2 8 2ZM13 2.66643C13 2.48968 12.9247 2.32017 12.7908 2.19519C12.6568 2.07021 12.4752 2 12.2857 2C12.0963 2 11.9146 2.07021 11.7806 2.19519C11.6467 2.32017 11.5714 2.48968 11.5714 2.66643C11.5714 4.00196 12.5514 4.68571 13.2286 5.15888L13.2857 5.19887C14.0371 5.72401 14.4286 6.03857 14.4286 6.66501C14.4286 6.84176 14.5038 7.01127 14.6378 7.13625C14.7717 7.26123 14.9534 7.33144 15.1429 7.33144C15.3323 7.33144 15.514 7.26123 15.6479 7.13625C15.7819 7.01127 15.8571 6.84176 15.8571 6.66501C15.8571 5.32949 14.8771 4.64573 14.2 4.17256L14.1429 4.13258C13.3914 3.60743 13 3.29288 13 2.66643ZM18.7143 9.99717H19.4286C20.3758 9.99717 21.2842 10.3482 21.954 10.9731C22.6237 11.598 23 12.4456 23 13.3293C23 14.2131 22.6237 15.0606 21.954 15.6855C21.2842 16.3104 20.3758 16.6615 19.4286 16.6615H18.4186C17.9028 18.3655 16.7435 19.8377 15.1547 20.8062C13.566 21.7747 11.6553 22.1739 9.77556 21.9302C7.89585 21.6865 6.17421 20.8162 4.92875 19.4802C3.68328 18.1442 2.99817 16.4328 3 14.6622V9.85188C3 9.19745 3.57 8.66431 4.27286 8.66431H17.4414C18.1443 8.66431 18.7143 9.19612 18.7143 9.85188V9.99717ZM4.42857 9.99717V14.6622C4.42857 16.2529 5.10587 17.7785 6.31146 18.9033C7.51705 20.0281 9.15218 20.6601 10.8571 20.6601C12.5621 20.6601 14.1972 20.0281 15.4028 18.9033C16.6084 17.7785 17.2857 16.2529 17.2857 14.6622V9.99717H4.42857ZM18.7143 11.33V14.6622C18.7143 14.887 18.7038 15.1091 18.6829 15.3286H19.4286C19.9969 15.3286 20.5419 15.118 20.9438 14.743C21.3457 14.3681 21.5714 13.8596 21.5714 13.3293C21.5714 12.7991 21.3457 12.2905 20.9438 11.9156C20.5419 11.5407 19.9969 11.33 19.4286 11.33H18.7143Z" fill="black"/>
</svg>
