<svg width="24" height="24" viewBox="0 0 24 24" fill="none" xmlns="http://www.w3.org/2000/svg">
<path d="M12 2.67859C13.4921 2.67859 14.9526 3.09348 16.2197 3.8739L16.4707 4.03503C17.7938 4.91915 18.8255 6.17527 19.4346 7.64539C20.0436 9.11564 20.2029 10.734 19.8926 12.2948C19.5823 13.8547 18.8165 15.2879 17.6924 16.413L16.5078 17.5848C16.0713 18.0134 15.569 18.5031 15.002 19.0546L13.1055 20.8934C12.809 21.1801 12.4124 21.3407 12 21.3407C11.6392 21.3407 11.2908 21.2176 11.0107 20.995L10.8945 20.8934L7.40625 17.4989L6.31055 16.4159L6.30957 16.4149C5.25459 15.3598 4.51494 14.0337 4.1709 12.5858L4.10742 12.2948C3.81642 10.8313 3.93866 9.31779 4.45703 7.92273L4.56543 7.64539C5.13648 6.267 6.07926 5.0769 7.28516 4.20496L7.5293 4.03503C8.76994 3.20608 10.215 2.73853 11.7021 2.68347L12 2.67859Z" stroke="black" stroke-width="1.32"/>
</svg>
